<?xml version="1.0" encoding="utf-8"?>
<!-- Generator: Adobe Illustrator 17.0.2, SVG Export Plug-In . SVG Version: 6.00 Build 0)  -->
<!DOCTYPE svg PUBLIC "-//W3C//DTD SVG 1.1//EN" "http://www.w3.org/Graphics/SVG/1.1/DTD/svg11.dtd">
<svg version="1.1" id="Layer_1" xmlns="http://www.w3.org/2000/svg" xmlns:xlink="http://www.w3.org/1999/xlink" x="0px" y="0px"
	 width="50px" height="56px" viewBox="0 0 50 56" enable-background="new 0 0 50 56" xml:space="preserve">
<g>
	<g>
	</g>
</g>
<g>
	<g id="XMLID_1_">
		<g>
			<g>
				<polygon fill="#FFFFFF" points="20.221,8.444 17.862,10.393 18.672,13.34 16.094,11.702 13.54,13.381 14.304,10.423 
					11.911,8.514 14.964,8.324 16.039,5.461 17.163,8.304 				"/>
			</g>
			<g>
				<polygon fill="#FFFFFF" points="20.221,20.435 17.862,22.384 18.672,25.332 16.094,23.693 13.54,25.372 14.304,22.414 
					11.911,20.505 14.964,20.315 16.039,17.453 17.163,20.296 				"/>
			</g>
			<g>
				<polygon fill="#FFFFFF" points="20.221,32.533 17.862,34.481 18.672,37.43 16.094,35.786 13.54,37.469 14.304,34.512 
					11.911,32.604 14.964,32.414 16.039,29.55 17.163,32.393 				"/>
			</g>
			<g>
				<polygon fill="#FFFFFF" points="20.221,44.399 17.862,46.349 18.672,49.295 16.094,47.652 13.54,49.335 14.304,46.378 
					11.911,44.471 14.964,44.28 16.039,41.416 17.163,44.26 				"/>
			</g>
		</g>
		<path fill="#FFFFFF" d="M23.789,19.807c1.585-1.872,4.103-3.075,7.279-3.476c6.246-0.791,13.464,1.502,17.367,4.175l0.39,0.269
			V4.155l-0.147-0.065c-5.546-2.488-11.651-3.735-17.65-3.605c-2.537,0.05-5.054,0.348-7.483,0.885
			C17.481,2.709,12.237,5.462,8.376,9.332c-3.56,3.571-5.812,8.043-6.51,12.932C0.39,32.601,2.641,41.148,8.375,46.988l0.176-0.174
			h0.005l-0.182,0.179c3.757,3.829,9.005,6.453,15.177,7.584c2.339,0.438,4.825,0.659,7.396,0.659c0.027,0,0.057,0,0.085,0
			c5.713-0.01,11.809-1.125,17.628-3.223l0.164-0.059V35.737l-0.416,0.366c-4.447,3.911-11.069,5.158-17.283,3.256
			c-2.957-0.908-5.498-2.424-7.346-4.386c-3.859-4.09-4.035-9.387-0.482-14.53C23.456,20.216,23.616,20.009,23.789,19.807z
			 M48.327,4.479v15.356c-3.999-2.574-10.939-4.709-17.044-4.025V0.982C37.081,0.889,42.961,2.099,48.327,4.479z M48.327,36.83
			v14.772c-5.633,2.012-11.514,3.086-17.044,3.128V39.922C37.382,41.688,43.831,40.516,48.327,36.83z M23.348,35.239v18.788
			c-5.904-1.136-10.926-3.658-14.545-7.315V9.614c3.721-3.7,8.742-6.351,14.545-7.684v17.627c-0.16,0.19-0.311,0.387-0.46,0.601
			C19.211,25.482,19.383,30.974,23.348,35.239z"/>
	</g>
	<g id="XMLID_2_">
		<g>
			<path fill="#FFFFFF" d="M31.035,55.983c-0.001,0-0.001,0-0.002,0h-0.085c-2.616,0-5.151-0.226-7.534-0.672
				c-6.321-1.159-11.708-3.855-15.573-7.796c-0.018-0.018-0.035-0.036-0.05-0.057C1.925,41.45-0.38,32.702,1.126,22.158
				c0.721-5.049,3.045-9.667,6.721-13.354c3.961-3.971,9.333-6.794,15.535-8.165c2.48-0.548,5.047-0.852,7.63-0.902
				c6.073-0.13,12.338,1.143,17.971,3.669l0.144,0.065c0.271,0.12,0.444,0.388,0.444,0.683v16.62c0,0.277-0.153,0.531-0.399,0.661
				c-0.244,0.129-0.542,0.112-0.771-0.045l-0.39-0.268c-3.054-2.092-8.673-4.203-14.344-4.203c-0.863,0-1.707,0.051-2.506,0.152
				c-2.989,0.377-5.342,1.49-6.803,3.217c-0.157,0.183-0.302,0.371-0.446,0.58c-3.334,4.826-3.185,9.781,0.411,13.593
				c1.759,1.866,4.187,3.313,7.021,4.183c1.826,0.56,3.707,0.844,5.589,0.844c4.188,0,8.09-1.401,10.983-3.946l0.415-0.366
				c0.221-0.193,0.534-0.238,0.801-0.118c0.269,0.12,0.439,0.387,0.439,0.68v16.218c0,0.314-0.197,0.596-0.493,0.703l-0.165,0.06
				C43.014,54.845,36.832,55.975,31.035,55.983z M8.958,46.52c3.645,3.692,8.737,6.224,14.729,7.322
				c2.295,0.43,4.737,0.647,7.261,0.647h0.084c5.519-0.009,11.405-1.066,17.046-3.061V37.343c-3.061,2.354-6.978,3.64-11.145,3.64
				c-2.03,0-4.059-0.306-6.026-0.908c-3.082-0.946-5.735-2.533-7.671-4.588c-4.123-4.369-4.324-10.008-0.552-15.468
				c0.175-0.253,0.351-0.48,0.539-0.699c1.703-2.013,4.386-3.305,7.752-3.73c0.861-0.109,1.767-0.164,2.693-0.164
				c5.538,0,11.046,1.917,14.41,3.962V4.641C42.722,2.29,36.831,1.109,31.044,1.231c-2.487,0.049-4.955,0.341-7.339,0.868
				C17.782,3.407,12.665,6.091,8.906,9.86c-3.446,3.457-5.624,7.782-6.3,12.51C1.164,32.467,3.343,40.798,8.909,46.464
				C8.926,46.481,8.942,46.501,8.958,46.52z"/>
		</g>
	</g>
</g>
</svg>
