<?xml version="1.0" encoding="utf-8"?>
<!-- Generator: Adobe Illustrator 17.0.2, SVG Export Plug-In . SVG Version: 6.00 Build 0)  -->
<!DOCTYPE svg PUBLIC "-//W3C//DTD SVG 1.1//EN" "http://www.w3.org/Graphics/SVG/1.1/DTD/svg11.dtd">
<svg version="1.1" id="Layer_1" xmlns="http://www.w3.org/2000/svg" xmlns:xlink="http://www.w3.org/1999/xlink" x="0px" y="0px"
	 width="137px" height="43px" viewBox="0 0 137 43" enable-background="new 0 0 137 43" xml:space="preserve">
<g>
	<g>
		<path fill="#FFFFFF" d="M1.801,0.359h15.084c5,0,6.756,1.809,6.756,6.243v5.45c0,4.434-1.756,6.242-6.756,6.242H1.801V0.359z
			 M6.799,13.688h8.871c2.139,0,2.973-0.668,2.973-3.221V8.04c0-2.553-0.834-3.222-2.973-3.222H6.799V13.688z"/>
		<path fill="#FFFFFF" d="M25.889,3.158h4.641v15.137h-4.641V3.158z"/>
		<path fill="#FFFFFF" d="M32.809,3.158h17.687v3.763h-6.523v11.374H39.33V6.921h-6.521V3.158z"/>
		<path fill="#FFFFFF" d="M51.834,3.158h17.688v3.763H63v11.374h-4.643V6.921h-6.523V3.158z"/>
		<path fill="#FFFFFF" d="M71.215,8.469c0-4.433,2.488-5.478,6.67-5.478h7.443c4.182,0,6.67,1.046,6.67,5.478v4.516
			c0,4.434-2.488,5.477-6.67,5.477h-7.443c-4.182,0-6.67-1.044-6.67-5.477V8.469z M75.982,11.542c0,2.195,0.459,3.032,2.654,3.032
			h5.939c2.195,0,2.654-0.837,2.654-3.032V9.91c0-1.881-0.459-3.03-2.906-3.03h-5.436c-2.447,0-2.906,1.149-2.906,3.03V11.542z"/>
		<path fill="#FFFFFF" d="M2.133,23.373h20.574v4.335h-7.588v13.923H9.721V27.708H2.133V23.373z"/>
		<path fill="#FFFFFF" d="M23.715,25.859h12.932c3.299,0,4.188,1.756,4.188,4.44v0.95c0.402,4.174-4.297,5.137-4.297,5.137
			l4.572,5.244h-5.201l-4.348-4.702h-3.563v4.669l-4.283,0.033V25.859z M27.998,33.212h7.086c1.158,0,1.582-0.496,1.582-1.569
			v-0.496c0-1.321-0.617-1.57-1.969-1.57h-6.699V33.212z"/>
		<path fill="#FFFFFF" d="M48.379,25.859h5.578l8.129,15.789h-4.793l-1.752-3.48h-8.686l-1.34,3.446l-5.074,0.017L48.379,25.859z
			 M48.457,34.946h5.481l-2.779-5.617L48.457,34.946z"/>
		<path fill="#FFFFFF" d="M61.773,25.859h12.932c4.283,0,5.789,1.508,5.789,5.205v4.542c0,3.697-1.459,6.008-5.744,6.008
			l-12.977,0.017V25.859z M66.057,36.97h7.605c1.834,0,2.547-0.558,2.547-2.684v-2.023c0-2.127-0.713-2.686-2.547-2.686h-7.605
			V36.97z"/>
		<path fill="#FFFFFF" d="M82.693,25.859h15.285v3.66H86.977v2.527H97.4v3.267H86.977v2.527H98.23v3.79H82.693V25.859z"/>
	</g>
	<g>
		<g>
			<circle fill="#FFFFFF" cx="115.109" cy="3.637" r="3.662"/>
		</g>
		<g>
			<circle fill="#FFFFFF" cx="102.837" cy="14.324" r="3.661"/>
		</g>
		<g>
			<circle fill="#FFFFFF" cx="115.109" cy="23.035" r="3.662"/>
		</g>
		<g>
			<circle fill="#FFFFFF" cx="131.538" cy="10.96" r="3.661"/>
		</g>
		<g>
			<circle fill="#FFFFFF" cx="129.263" cy="27.517" r="3.661"/>
		</g>
		<g>
			<circle fill="#FFFFFF" cx="108.676" cy="39.364" r="3.662"/>
		</g>
		<g>
			<line fill="#FFFFFF" x1="115.109" y1="17.986" x2="115.109" y2="9.079"/>
			<rect x="114.713" y="9.079" fill="#FFFFFF" width="0.791" height="8.907"/>
		</g>
		<g>
			<line fill="#FFFFFF" x1="111.447" y1="20.163" x2="107.885" y2="16.602"/>
			
				<rect x="107.147" y="17.988" transform="matrix(0.707 0.7072 -0.7072 0.707 45.1308 -72.1694)" fill="#FFFFFF" width="5.039" height="0.79"/>
		</g>
		<g>
			<line fill="#FFFFFF" x1="120.156" y1="20.163" x2="127.877" y2="14.622"/>
			
				<rect x="123.62" y="12.642" transform="matrix(0.5839 0.8118 -0.8118 0.5839 65.7236 -93.4431)" fill="#FFFFFF" width="0.793" height="9.502"/>
		</g>
		<g>
			<line fill="#FFFFFF" x1="124.016" y1="25.904" x2="120.156" y2="25.312"/>
			
				<rect x="120.135" y="25.212" transform="matrix(0.9884 0.1521 -0.1521 0.9884 5.3142 -18.2682)" fill="#FFFFFF" width="3.905" height="0.791"/>
		</g>
		<g>
			<line fill="#FFFFFF" x1="111.447" y1="34.416" x2="113.625" y2="27.517"/>
			
				<rect x="112.142" y="27.351" transform="matrix(0.9529 0.3033 -0.3033 0.9529 14.6913 -32.6706)" fill="#FFFFFF" width="0.789" height="7.233"/>
		</g>
	</g>
</g>
</svg>
