<?xml version="1.0" encoding="utf-8"?>
<!-- Generator: Adobe Illustrator 17.0.2, SVG Export Plug-In . SVG Version: 6.00 Build 0)  -->
<!DOCTYPE svg PUBLIC "-//W3C//DTD SVG 1.1//EN" "http://www.w3.org/Graphics/SVG/1.1/DTD/svg11.dtd">
<svg version="1.1" id="Layer_1" xmlns="http://www.w3.org/2000/svg" xmlns:xlink="http://www.w3.org/1999/xlink" x="0px" y="0px"
	 width="146px" height="20.334px" viewBox="0 0 146 20.334" enable-background="new 0 0 146 20.334" xml:space="preserve">
<g>
	<path fill="#FFFFFF" d="M38.255,1.421c0.111,0.112,0.199,0.293,0.265,0.543c0.065,0.251,0.112,0.529,0.139,0.836
		c0.028,0.307,0.047,0.632,0.056,0.976c0.009,0.344,0.014,0.682,0.014,1.017v5.433c0,0.502,0,1.042,0,1.617
		c0,0.557-0.005,1.1-0.014,1.629c-0.009,0.529-0.019,1.017-0.028,1.463c-0.01,0.446-0.014,0.798-0.014,1.059
		c0,0.297-0.009,0.604-0.027,0.919c-0.019,0.316-0.042,0.613-0.07,0.892c-0.028,0.278-0.07,0.529-0.125,0.752
		c-0.056,0.224-0.13,0.391-0.223,0.502c-0.106,0.131-0.238,0.24-0.38,0.343h4.845c-0.238-0.171-0.433-0.342-0.536-0.51
		c-0.186-0.279-0.288-0.632-0.307-1.059c-0.019-0.427-0.037-0.937-0.055-1.532c-0.019-0.613-0.028-1.366-0.028-2.257
		c0-0.892,0-1.941,0-3.149c0.26,0.019,0.474,0.028,0.641,0.028c0.186,0,0.455,0.038,0.808,0.112
		c0.483,0.093,0.943,0.324,1.379,0.696c0.437,0.372,0.84,0.771,1.212,1.198c0.446,0.521,0.832,0.989,1.156,1.408
		c0.325,0.418,0.627,0.831,0.906,1.239c0.278,0.409,0.553,0.823,0.822,1.24c0.269,0.418,0.58,0.888,0.933,1.408
		c0.297,0.427,0.516,0.747,0.655,0.96c0.054,0.083,0.101,0.151,0.148,0.218h4.633c-0.128-0.072-0.272-0.121-0.393-0.204
		c-0.65-0.445-1.319-1.15-2.006-2.117c-0.445-0.631-0.952-1.355-1.518-2.173c-0.567-0.817-1.091-1.578-1.574-2.285
		c-0.279-0.39-0.567-0.743-0.864-1.059c-0.297-0.315-0.604-0.557-0.919-0.724v-0.083c0.613-0.204,1.198-0.455,1.755-0.753
		c0.558-0.296,1.044-0.654,1.463-1.073c0.418-0.418,0.752-0.9,1.003-1.449c0.25-0.547,0.376-1.166,0.376-1.852
		c0-1.115-0.25-2.039-0.752-2.773c-0.501-0.733-1.161-1.313-1.978-1.741c-0.799-0.427-1.682-0.677-2.647-0.751
		c-0.966-0.074-2.072-0.112-3.315-0.112c-0.502,0-1.152,0-1.951,0c-0.798,0-1.598,0.005-2.396,0.014
		c-0.799,0.011-1.514,0.015-2.145,0.015c-0.613,0-0.994,0-1.142,0v0.278c0.501,0.075,0.923,0.164,1.267,0.265
		C37.665,0.925,37.977,1.125,38.255,1.421z M41.766,9.474c0-0.576,0-1.244,0-2.006c0-0.762,0.004-1.551,0.014-2.369
		c0.009-0.817,0.023-1.551,0.042-2.202c0.018-0.427,0.033-0.757,0.042-0.989c0.009-0.232,0.018-0.413,0.028-0.543
		s0.023-0.236,0.042-0.32c0.018-0.084,0.037-0.181,0.055-0.293c0.13-0.017,0.316-0.037,0.558-0.056
		c0.241-0.018,0.557-0.028,0.947-0.028c0.539,0,1.054,0.047,1.546,0.14c0.492,0.093,0.961,0.241,1.407,0.446
		c0.892,0.427,1.57,1.002,2.034,1.727c0.464,0.724,0.697,1.551,0.697,2.48c0,0.501-0.065,0.985-0.195,1.448
		c-0.13,0.465-0.33,0.897-0.599,1.296c-0.269,0.399-0.618,0.757-1.045,1.072c-0.428,0.316-0.938,0.567-1.533,0.753
		c-0.613,0.205-1.249,0.339-1.908,0.404c-0.66,0.066-1.37,0.097-2.132,0.097C41.766,10.384,41.766,10.031,41.766,9.474z"/>
	<path fill="#FFFFFF" d="M97.351,1.366c0.113,0.112,0.201,0.293,0.266,0.543c0.064,0.251,0.111,0.535,0.138,0.85
		c0.029,0.316,0.049,0.651,0.057,1.003c0.009,0.352,0.015,0.696,0.015,1.031v5.433c0,0.502,0,1.042,0,1.617
		c0,0.557-0.006,1.1-0.015,1.629c-0.008,0.529-0.018,1.017-0.027,1.463c-0.01,0.446-0.014,0.798-0.014,1.059
		c0,0.297-0.009,0.599-0.027,0.905c-0.02,0.307-0.053,0.599-0.099,0.878c-0.046,0.278-0.097,0.524-0.153,0.738
		c-0.056,0.213-0.129,0.376-0.222,0.487c-0.132,0.149-0.28,0.282-0.445,0.399h4.684c-0.068-0.066-0.15-0.126-0.198-0.204
		c-0.168-0.259-0.274-0.653-0.32-1.184c-0.048-0.529-0.08-1.091-0.099-1.686c0-0.315-0.004-0.692-0.015-1.128
		c-0.008-0.437-0.013-0.915-0.013-1.435c0-0.539,0-1.096,0-1.672c0-0.595,0-1.188,0-1.783c0.298,0,0.547,0,0.752,0
		c0.205,0,0.399,0,0.586,0c0.184,0,0.381,0.005,0.584,0.015c0.205,0.009,0.445,0.023,0.724,0.041c0.54,0.037,1.01,0.135,1.409,0.292
		c0.397,0.158,0.774,0.394,1.128,0.711c0.39,0.352,0.725,0.859,1.003,1.518c0.278,0.66,0.491,1.287,0.641,1.881h0.335V5.796h-0.335
		c-0.073,0.464-0.157,0.897-0.252,1.295c-0.092,0.4-0.249,0.766-0.473,1.101c-0.222,0.333-0.529,0.623-0.919,0.863
		c-0.392,0.242-0.921,0.438-1.589,0.585c-0.259,0.057-0.586,0.099-0.975,0.125c-0.39,0.028-0.767,0.051-1.129,0.07
		c-0.361,0.019-0.692,0.027-0.989,0.027c-0.279,0-0.446,0-0.501,0c0-0.092,0-0.38,0-0.864c0-0.501,0-1.096,0-1.783
		c0-0.687,0.005-1.416,0.013-2.187c0.011-0.771,0.023-1.481,0.042-2.132c0.018-0.334,0.038-0.618,0.057-0.85
		c0.019-0.231,0.037-0.421,0.057-0.57c0.017-0.148,0.042-0.279,0.069-0.39c0.026-0.112,0.05-0.223,0.068-0.335
		c0.093,0,0.236-0.004,0.434-0.014c0.194-0.009,0.404-0.018,0.626-0.028c0.224-0.008,0.454-0.017,0.696-0.027
		c0.241-0.01,0.455-0.015,0.641-0.015c1.097,0,2.058,0.052,2.885,0.154c0.826,0.103,1.396,0.227,1.712,0.375
		c0.651,0.316,1.32,0.808,2.007,1.477c0.686,0.669,1.411,1.477,2.173,2.425l0.278-0.139l-1.895-4.681h-15.49v0.278
		c0.5,0.075,0.908,0.153,1.225,0.237C96.774,0.878,97.072,1.068,97.351,1.366z"/>
	<path fill="#FFFFFF" d="M125.368,4.486c0.194-0.352,0.397-0.682,0.611-0.989c0.213-0.307,0.419-0.589,0.613-0.85
		c0.194-0.26,0.366-0.455,0.517-0.585c0.39-0.371,0.812-0.632,1.267-0.78c0.456-0.149,1.036-0.232,1.741-0.25
		c0.354,0,0.664-0.005,0.934-0.015c0.271-0.008,0.525-0.014,0.766-0.014c0.26,0,0.53,0,0.809,0c0.297,0,0.643,0,1.031,0v9.222
		c0,0.502,0,1.032,0,1.589c0,0.558-0.004,1.097-0.015,1.616c-0.008,0.52-0.019,0.994-0.026,1.421
		c-0.011,0.428-0.015,0.771-0.015,1.031c0,0.297-0.005,0.604-0.013,0.919c-0.011,0.316-0.029,0.608-0.057,0.877
		c-0.027,0.271-0.066,0.512-0.111,0.726c-0.048,0.214-0.117,0.366-0.209,0.459c-0.192,0.217-0.385,0.393-0.58,0.538h4.869
		c-0.195-0.138-0.362-0.308-0.501-0.51c-0.148-0.205-0.236-0.552-0.264-1.045c-0.027-0.492-0.042-1.007-0.042-1.546v-6.186
		c0-0.576,0-1.282,0-2.117c0-0.855,0-1.718,0-2.591c0-0.873,0.005-1.709,0.015-2.508c0.009-0.799,0.013-1.43,0.013-1.894
		c0.408,0,0.754,0,1.032,0c0.297,0,0.566,0,0.808,0c0.26,0,0.52,0.005,0.781,0.014c0.259,0.01,0.565,0.015,0.919,0.015
		c0.705,0.018,1.285,0.088,1.741,0.209c0.454,0.121,0.877,0.367,1.268,0.739c0.147,0.13,0.324,0.33,0.527,0.599
		c0.205,0.27,0.414,0.562,0.628,0.878c0.213,0.316,0.423,0.655,0.628,1.017c0.203,0.362,0.379,0.711,0.527,1.044l0.251-0.083
		L144.94,0c-0.427,0.131-0.839,0.237-1.239,0.321c-0.399,0.083-0.906,0.135-1.52,0.153c-0.705,0-1.337,0.005-1.895,0.014
		c-0.557,0.01-1.097,0.019-1.615,0.028c-0.52,0.009-1.06,0.013-1.616,0.013c-0.54,0-1.151,0-1.84,0c-0.687,0-1.308,0-1.867,0
		c-0.537,0-1.067,0-1.586,0c-0.521,0-1.06-0.004-1.616-0.013c-0.559-0.01-1.188-0.023-1.896-0.042
		c-0.687-0.018-1.212-0.056-1.573-0.111c-0.362-0.057-0.756-0.13-1.186-0.223l-0.835,5.293l0.251,0.083
		C125.019,5.184,125.172,4.839,125.368,4.486z"/>
	<path fill="#FFFFFF" d="M2.313,1.533c0.111,0.13,0.194,0.31,0.25,0.543c0.056,0.232,0.097,0.492,0.126,0.78
		C2.717,3.145,2.73,3.456,2.73,3.79c0,0.335,0,0.668,0,1.003v5.433c0,0.502,0,1.042,0,1.617c0,0.557-0.005,1.1-0.014,1.629
		c-0.009,0.529-0.019,1.017-0.028,1.463c-0.01,0.446-0.014,0.798-0.014,1.059c0,0.297-0.009,0.604-0.027,0.919
		c-0.019,0.316-0.047,0.613-0.084,0.892c-0.038,0.278-0.079,0.529-0.125,0.752c-0.047,0.224-0.116,0.382-0.209,0.475
		c-0.114,0.134-0.259,0.256-0.431,0.37h5.083c-0.167-0.102-0.333-0.203-0.474-0.343c-0.111-0.111-0.208-0.283-0.293-0.515
		c-0.083-0.232-0.143-0.492-0.181-0.781c-0.038-0.288-0.07-0.585-0.098-0.892c-0.028-0.307-0.042-0.589-0.042-0.85
		c-0.019-0.612-0.028-1.402-0.028-2.369c0-0.983,0-2.071,0-3.26c0-2.21,0.009-4.114,0.028-5.712C5.814,3.084,5.87,1.831,5.962,0.92
		c0.13-0.037,0.302-0.065,0.516-0.084c0.213-0.017,0.446-0.041,0.697-0.069C7.426,0.739,7.681,0.721,7.941,0.71
		c0.26-0.008,0.501-0.014,0.724-0.014c0.65,0,1.199,0.024,1.645,0.07c0.446,0.046,0.854,0.107,1.226,0.181
		c0.966,0.166,1.857,0.539,2.675,1.114c0.817,0.576,1.523,1.277,2.117,2.103c0.594,0.827,1.059,1.751,1.393,2.773
		c0.334,1.021,0.501,2.071,0.501,3.148c0,2.434-0.497,4.482-1.49,6.144c-0.907,1.517-2.257,2.559-4.008,3.171h2.941
		c0.737-0.282,1.445-0.629,2.112-1.067c0.762-0.501,1.431-1.132,2.006-1.894c0.576-0.761,1.031-1.672,1.365-2.731
		c0.334-1.058,0.501-2.285,0.501-3.677c0-1.207-0.153-2.28-0.46-3.218c-0.306-0.938-0.715-1.765-1.226-2.479
		c-0.511-0.716-1.11-1.333-1.797-1.853c-0.688-0.521-1.421-0.947-2.202-1.282c-0.594-0.26-1.198-0.454-1.811-0.585
		c-0.613-0.13-1.226-0.223-1.839-0.278c-0.613-0.056-1.226-0.084-1.839-0.084c-0.594,0-1.188,0-1.783,0
		c-2.081,0-3.855,0.005-5.322,0.014C1.904,0.275,0.78,0.279,0,0.279v0.278c0.483,0.056,0.919,0.149,1.31,0.278
		C1.7,0.967,2.034,1.198,2.313,1.533z"/>
	<path fill="#FFFFFF" d="M72.415,1.533c0.112,0.13,0.195,0.31,0.251,0.543c0.056,0.232,0.098,0.492,0.125,0.78
		c0.028,0.289,0.042,0.6,0.042,0.934c0,0.335,0,0.668,0,1.003v5.433c0,0.502,0,1.042,0,1.617c0,0.557-0.005,1.1-0.014,1.629
		c-0.01,0.529-0.019,1.017-0.028,1.463c-0.009,0.446-0.014,0.798-0.014,1.059c0,0.297-0.005,0.599-0.014,0.905
		c-0.009,0.307-0.028,0.599-0.056,0.878c-0.028,0.278-0.065,0.521-0.112,0.725c-0.046,0.204-0.116,0.361-0.209,0.473
		c-0.144,0.162-0.304,0.304-0.479,0.427h4.623c-0.149-0.11-0.283-0.229-0.383-0.37c-0.148-0.204-0.232-0.558-0.25-1.059
		c-0.02-0.501-0.028-1.022-0.028-1.56v-6.297c0-0.576,0-1.105,0-1.589c0-0.501,0-0.983,0-1.448c0-0.463,0.004-0.924,0.015-1.379
		c0.008-0.455,0.014-0.914,0.014-1.379c0.018-0.427,0.032-0.882,0.042-1.365c0.009-0.483,0.097-0.882,0.265-1.198
		c0.24-0.446,0.584-0.743,1.029-0.892c0.446-0.149,0.864-0.251,1.253-0.307V0.279h-8.329v0.278c0.483,0.056,0.915,0.153,1.296,0.293
		C71.834,0.99,72.155,1.217,72.415,1.533z"/>
</g>
</svg>
