<?xml version="1.0" encoding="utf-8"?>
<!-- Generator: Adobe Illustrator 17.0.2, SVG Export Plug-In . SVG Version: 6.00 Build 0)  -->
<!DOCTYPE svg PUBLIC "-//W3C//DTD SVG 1.1//EN" "http://www.w3.org/Graphics/SVG/1.1/DTD/svg11.dtd">
<svg version="1.1" id="Layer_1" xmlns="http://www.w3.org/2000/svg" xmlns:xlink="http://www.w3.org/1999/xlink" x="0px" y="0px"
	 width="138.789px" height="29px" viewBox="0 0 138.789 29" enable-background="new 0 0 138.789 29" xml:space="preserve">
<g>
	<path fill="#FFFFFF" d="M129.664,7.619c-0.665,0.213-1.289,0.512-1.875,0.897c-0.586,0.386-1.104,0.852-1.555,1.396
		c-0.453,0.545-0.812,1.137-1.077,1.774h-0.08V7.858h-5.385v4.446c-0.234-0.436-0.487-0.859-0.778-1.256
		c-0.836-1.144-1.907-2.054-3.21-2.732c-1.304-0.678-2.832-1.018-4.587-1.018c-1.569,0-2.998,0.28-4.288,0.838
		c-1.219,0.529-2.272,1.247-3.17,2.144V7.858h-4.147V1.675h-5.664v6.183h-3.431v0.904c-0.215-0.14-0.439-0.271-0.678-0.386
		c-0.877-0.424-1.847-0.71-2.91-0.857c-1.065-0.146-2.115-0.22-3.152-0.22c-1.143,0-2.28,0.114-3.41,0.34
		c-1.13,0.225-2.147,0.604-3.051,1.136c-0.904,0.533-1.65,1.237-2.234,2.114c-0.088,0.133-0.161,0.282-0.238,0.425V0H69.08v10.37
		h-0.079c-0.639-1.01-1.509-1.774-2.613-2.293c-1.103-0.518-2.268-0.778-3.49-0.778c-1.516,0-2.846,0.3-3.989,0.898
		c-0.835,0.437-1.563,0.979-2.193,1.622v-1.96h-4.147V1.675h-5.664v6.183h-3.431v0.975c-0.067-0.045-0.13-0.095-0.199-0.137
		c-0.825-0.506-1.762-0.864-2.812-1.077c-1.051-0.212-2.134-0.32-3.251-0.32c-1.117,0-2.207,0.1-3.27,0.3
		c-1.064,0.199-2.022,0.545-2.872,1.037c-0.851,0.492-1.536,1.164-2.055,2.014c-0.081,0.133-0.145,0.284-0.214,0.43
		c-0.129-0.338-0.282-0.655-0.483-0.929c-0.558-0.757-1.276-1.349-2.154-1.775c-0.878-0.424-1.849-0.71-2.912-0.857
		c-1.063-0.146-2.113-0.22-3.151-0.22c-1.144,0-2.28,0.114-3.41,0.34c-1.13,0.225-2.147,0.604-3.051,1.136
		c-0.238,0.14-0.463,0.292-0.678,0.457V7.858H9.054V6.621c0-0.851,0.166-1.456,0.499-1.815c0.333-0.359,0.884-0.538,1.656-0.538
		c0.718,0,1.409,0.04,2.074,0.12V0.16c-0.479-0.026-0.97-0.06-1.475-0.1C11.3,0.02,10.795,0,10.291,0
		C7.977,0,6.249,0.585,5.105,1.755C3.962,2.926,3.391,4.428,3.391,6.262v1.596H0v3.788h3.391v16.833h5.663V11.646h1.94
		c-0.329,0.731-0.526,1.581-0.584,2.553h5.664c0.106-1.117,0.479-1.915,1.117-2.392c0.639-0.479,1.516-0.718,2.633-0.718
		c0.504,0,0.977,0.034,1.416,0.1c0.439,0.066,0.824,0.199,1.157,0.398c0.333,0.2,0.599,0.479,0.798,0.837
		c0.199,0.359,0.299,0.845,0.299,1.456c0.026,0.586-0.146,1.031-0.519,1.336c-0.372,0.306-0.877,0.539-1.516,0.698
		c-0.638,0.16-1.37,0.279-2.193,0.359c-0.824,0.08-1.662,0.186-2.513,0.319c-0.852,0.134-1.695,0.314-2.533,0.539
		c-0.837,0.227-1.582,0.565-2.234,1.017c-0.651,0.453-1.183,1.057-1.595,1.815c-0.412,0.758-0.618,1.722-0.618,2.892
		c0,1.062,0.18,1.981,0.539,2.752c0.359,0.771,0.857,1.408,1.496,1.914c0.638,0.506,1.383,0.877,2.234,1.116
		c0.851,0.24,1.768,0.359,2.751,0.359c1.276,0,2.526-0.186,3.749-0.558c1.223-0.372,2.287-1.023,3.191-1.955
		c0.027,0.345,0.073,0.684,0.14,1.017c0.065,0.333,0.153,0.658,0.259,0.979h5.744c-0.266-0.426-0.453-1.063-0.558-1.916
		c-0.023-0.181-0.033-0.371-0.051-0.559c0.466,0.564,1.005,1.048,1.626,1.438c0.891,0.559,1.908,0.956,3.052,1.195
		c1.143,0.24,2.313,0.359,3.509,0.359c1.17,0,2.32-0.113,3.451-0.339c1.129-0.226,2.134-0.619,3.011-1.178
		c0.878-0.558,1.589-1.295,2.134-2.212c0.545-0.918,0.818-2.055,0.818-3.411c0-0.958-0.187-1.761-0.558-2.414
		c-0.372-0.65-0.865-1.196-1.476-1.635c-0.613-0.439-1.31-0.791-2.095-1.057c-0.783-0.265-1.588-0.491-2.412-0.678
		c-0.798-0.186-1.583-0.359-2.353-0.519c-0.772-0.159-1.456-0.339-2.055-0.538c-0.598-0.2-1.083-0.459-1.456-0.778
		c-0.373-0.319-0.559-0.731-0.559-1.237c0-0.424,0.106-0.763,0.319-1.017c0.213-0.251,0.473-0.444,0.778-0.578
		c0.306-0.133,0.645-0.219,1.017-0.259c0.373-0.04,0.718-0.06,1.038-0.06c1.01,0,1.888,0.193,2.633,0.578
		c0.743,0.386,1.156,1.124,1.236,2.213h5.385c-0.07-0.843-0.247-1.582-0.508-2.234h1.106v12.166c0,1.035,0.172,1.874,0.518,2.514
		c0.345,0.637,0.817,1.128,1.414,1.476c0.6,0.345,1.291,0.576,2.074,0.696c0.786,0.122,1.617,0.181,2.493,0.181
		c0.56,0,1.131-0.015,1.716-0.041c0.585-0.026,1.116-0.079,1.596-0.158v-2.036c0.635,0.666,1.377,1.221,2.233,1.656
		c1.169,0.598,2.525,0.897,4.067,0.897c1.357,0,2.573-0.245,3.65-0.736c1.077-0.491,1.948-1.298,2.613-2.414h0.08v2.633h5.384
		v-1.598c0.199,0.226,0.398,0.451,0.637,0.64c0.638,0.506,1.382,0.877,2.233,1.116c0.851,0.24,1.768,0.359,2.753,0.359
		c1.276,0,2.525-0.186,3.748-0.558c1.223-0.372,2.287-1.023,3.191-1.955c0.026,0.345,0.073,0.684,0.14,1.017
		c0.067,0.333,0.153,0.658,0.26,0.979h5.744c-0.267-0.426-0.453-1.063-0.559-1.916c-0.107-0.851-0.16-1.742-0.16-2.672V13.163
		c0-0.557-0.064-1.057-0.175-1.517h1.291v12.166c0,1.035,0.173,1.874,0.518,2.514c0.345,0.637,0.818,1.128,1.416,1.476
		c0.6,0.345,1.289,0.576,2.074,0.696c0.784,0.122,1.615,0.181,2.492,0.181c0.56,0,1.131-0.015,1.716-0.041
		c0.585-0.026,1.116-0.079,1.595-0.158v-2.247c0.859,0.845,1.878,1.513,3.071,1.987c1.303,0.517,2.765,0.777,4.387,0.777
		c2.341,0,4.334-0.531,5.982-1.596c1.031-0.663,1.895-1.605,2.593-2.819v3.897h5.664v-9.294c0-0.93,0.092-1.795,0.278-2.593
		c0.188-0.796,0.5-1.495,0.938-2.094c0.438-0.598,1.017-1.07,1.735-1.416c0.718-0.345,1.595-0.518,2.632-0.518
		c0.345,0,0.703,0.021,1.077,0.06c0.372,0.039,0.69,0.087,0.957,0.139V7.499c-0.453-0.132-0.864-0.2-1.236-0.2
		C131.02,7.298,130.328,7.406,129.664,7.619z M23.493,20.5c0,0.32-0.034,0.746-0.1,1.277c-0.066,0.531-0.246,1.057-0.538,1.574
		c-0.293,0.519-0.745,0.966-1.356,1.337c-0.612,0.374-1.476,0.559-2.592,0.559c-0.453,0-0.892-0.041-1.316-0.12
		c-0.426-0.079-0.798-0.219-1.117-0.418c-0.319-0.201-0.572-0.473-0.758-0.818c-0.186-0.345-0.279-0.771-0.279-1.276
		c0-0.532,0.093-0.97,0.279-1.316c0.186-0.346,0.433-0.632,0.738-0.857c0.305-0.226,0.664-0.405,1.077-0.539
		c0.413-0.132,0.831-0.239,1.256-0.319c0.452-0.08,0.904-0.146,1.356-0.199c0.452-0.053,0.884-0.12,1.296-0.2
		c0.412-0.08,0.798-0.179,1.157-0.299c0.359-0.12,0.658-0.285,0.898-0.499V20.5z M34.78,19.424c2.021,0.426,3.596,0.852,4.727,1.277
		c1.129,0.426,1.695,1.063,1.695,1.914c0,0.506-0.119,0.924-0.359,1.257c-0.239,0.333-0.539,0.599-0.897,0.798
		c-0.359,0.198-0.758,0.345-1.196,0.438c-0.439,0.093-0.858,0.14-1.256,0.14c-0.559,0-1.097-0.067-1.616-0.199
		c-0.519-0.132-0.978-0.339-1.376-0.619c-0.399-0.277-0.725-0.637-0.978-1.077c-0.253-0.438-0.379-0.963-0.379-1.574h-3.988v-5.089
		c0.317,0.41,0.674,0.782,1.116,1.08c0.612,0.413,1.31,0.745,2.094,0.997C33.151,19.02,33.956,19.238,34.78,19.424z M54.343,22.137
		c0.218,0.752,0.502,1.451,0.84,2.104c-0.076,0.002-0.145,0.01-0.222,0.01c-0.956,0-1.594-0.16-1.914-0.479
		c-0.32-0.319-0.478-0.957-0.478-1.915V11.646h2.78c-0.413,0.715-0.753,1.488-1.006,2.334c-0.386,1.29-0.579,2.625-0.579,4.008
		C53.764,19.424,53.957,20.807,54.343,22.137z M69.041,20.581c-0.16,0.798-0.426,1.51-0.798,2.134
		c-0.373,0.625-0.872,1.124-1.496,1.496c-0.626,0.373-1.403,0.558-2.333,0.558c-0.878,0-1.629-0.192-2.253-0.578
		c-0.626-0.386-1.144-0.889-1.556-1.516c-0.413-0.624-0.712-1.335-0.897-2.134c-0.187-0.796-0.279-1.595-0.279-2.392
		c0-0.851,0.085-1.669,0.259-2.453c0.172-0.785,0.452-1.482,0.837-2.094c0.385-0.612,0.898-1.103,1.536-1.477
		c0.638-0.373,1.422-0.559,2.354-0.559c0.93,0,1.701,0.186,2.313,0.559c0.612,0.373,1.109,0.858,1.496,1.456
		c0.385,0.598,0.658,1.289,0.818,2.074c0.159,0.784,0.239,1.602,0.239,2.453C69.28,18.959,69.2,19.783,69.041,20.581z M87.068,20.5
		c0,0.32-0.034,0.746-0.101,1.277c-0.066,0.531-0.246,1.057-0.538,1.574c-0.293,0.519-0.745,0.966-1.357,1.337
		c-0.612,0.374-1.475,0.559-2.592,0.559c-0.453,0-0.892-0.041-1.317-0.12s-0.797-0.219-1.116-0.418
		c-0.319-0.201-0.572-0.473-0.757-0.818c-0.187-0.345-0.279-0.771-0.279-1.276c0-0.532,0.092-0.97,0.279-1.316
		c0.185-0.346,0.431-0.632,0.738-0.857c0.305-0.226,0.664-0.405,1.077-0.539c0.412-0.132,0.831-0.239,1.256-0.319
		c0.452-0.08,0.904-0.146,1.356-0.199c0.452-0.053,0.884-0.12,1.296-0.2c0.412-0.08,0.797-0.179,1.156-0.299
		c0.358-0.12,0.659-0.285,0.898-0.499V20.5z M86.549,15.216c-0.373,0.306-0.877,0.539-1.515,0.698
		c-0.639,0.16-1.371,0.279-2.194,0.359c-0.825,0.08-1.663,0.186-2.513,0.319c-0.852,0.134-1.695,0.314-2.533,0.539
		c-0.838,0.227-1.583,0.565-2.234,1.017c-0.3,0.208-0.567,0.456-0.816,0.729v-4.678h4.905c0.105-1.117,0.478-1.915,1.117-2.392
		c0.638-0.479,1.515-0.718,2.632-0.718c0.505,0,0.977,0.034,1.416,0.1c0.439,0.066,0.824,0.199,1.157,0.398
		c0.332,0.2,0.598,0.479,0.798,0.837c0.199,0.359,0.299,0.845,0.299,1.456C87.094,14.466,86.921,14.911,86.549,15.216z
		 M101.326,22.576c0.22,0.596,0.487,1.146,0.789,1.665c-0.071,0.002-0.137,0.01-0.211,0.01c-0.957,0-1.594-0.16-1.914-0.479
		c-0.319-0.319-0.479-0.957-0.479-1.915V11.646h3.012c-0.47,0.68-0.868,1.419-1.178,2.234c-0.505,1.33-0.758,2.766-0.758,4.308
		C100.588,19.783,100.833,21.246,101.326,22.576z M106.511,14.598c0.146-0.505,0.398-0.983,0.758-1.436
		c0.359-0.452,0.837-0.831,1.437-1.137c0.598-0.305,1.349-0.459,2.253-0.459c1.383,0,2.413,0.374,3.091,1.117
		c0.678,0.745,1.149,1.834,1.417,3.27h-9.214C106.278,15.555,106.364,15.104,106.511,14.598z M119.692,22.097h-3.908
		c-0.187,0.638-0.692,1.243-1.517,1.815c-0.824,0.57-1.809,0.857-2.95,0.857c-1.596,0-2.819-0.412-3.67-1.235
		c-0.852-0.824-1.315-2.154-1.396-3.989h13.44V22.097z"/>
	<path fill="#FFFFFF" d="M137.042,10.062c0.084-0.029,0.157-0.07,0.221-0.125c0.062-0.054,0.111-0.125,0.148-0.21
		c0.036-0.086,0.054-0.189,0.054-0.312c0-0.285-0.09-0.485-0.268-0.603c-0.179-0.117-0.433-0.176-0.763-0.176h-0.994v2.633h0.521
		v-1.125h0.327l0.641,1.125h0.548l-0.704-1.15C136.869,10.11,136.958,10.091,137.042,10.062z M135.961,9.735V9.044h0.441
		c0.059,0,0.119,0.004,0.185,0.013c0.064,0.008,0.123,0.024,0.176,0.047c0.053,0.023,0.096,0.056,0.13,0.097
		c0.032,0.042,0.049,0.099,0.049,0.171c0,0.159-0.048,0.259-0.143,0.301c-0.098,0.042-0.221,0.063-0.372,0.063H135.961z"/>
	<path fill="#FFFFFF" d="M138.591,8.987c-0.132-0.288-0.308-0.534-0.53-0.738c-0.223-0.203-0.479-0.36-0.77-0.471
		c-0.291-0.111-0.597-0.167-0.914-0.167c-0.32,0-0.624,0.056-0.916,0.167c-0.29,0.111-0.547,0.268-0.77,0.471
		c-0.222,0.204-0.398,0.45-0.53,0.738c-0.132,0.29-0.198,0.613-0.198,0.969c0,0.36,0.066,0.684,0.198,0.974
		c0.132,0.289,0.309,0.537,0.53,0.742c0.223,0.206,0.48,0.362,0.77,0.471c0.292,0.109,0.596,0.164,0.916,0.164
		c0.317,0,0.623-0.055,0.914-0.164c0.29-0.108,0.547-0.265,0.77-0.471c0.222-0.205,0.398-0.453,0.53-0.742
		c0.133-0.29,0.198-0.614,0.198-0.974C138.789,9.6,138.724,9.277,138.591,8.987z M138.007,10.697
		c-0.094,0.226-0.221,0.422-0.38,0.587c-0.159,0.167-0.346,0.295-0.562,0.387c-0.216,0.092-0.445,0.138-0.688,0.138
		c-0.248,0-0.48-0.046-0.695-0.138c-0.216-0.092-0.403-0.221-0.562-0.387c-0.158-0.166-0.285-0.361-0.377-0.587
		c-0.092-0.227-0.139-0.473-0.139-0.741c0-0.269,0.047-0.515,0.139-0.739c0.092-0.224,0.219-0.418,0.377-0.582
		c0.159-0.163,0.347-0.291,0.562-0.383c0.216-0.092,0.447-0.137,0.695-0.137c0.242,0,0.472,0.045,0.688,0.137
		c0.217,0.093,0.403,0.22,0.562,0.383c0.159,0.164,0.286,0.357,0.38,0.582c0.095,0.224,0.141,0.47,0.141,0.739
		C138.147,10.224,138.102,10.47,138.007,10.697z"/>
</g>
</svg>
