<?xml version="1.0" encoding="utf-8"?>
<!-- Generator: Adobe Illustrator 17.0.2, SVG Export Plug-In . SVG Version: 6.00 Build 0)  -->
<!DOCTYPE svg PUBLIC "-//W3C//DTD SVG 1.1//EN" "http://www.w3.org/Graphics/SVG/1.1/DTD/svg11.dtd">
<svg version="1.1" xmlns="http://www.w3.org/2000/svg" xmlns:xlink="http://www.w3.org/1999/xlink" x="0px" y="0px" width="170px"
	 height="37px" viewBox="0 0 170 37" enable-background="new 0 0 170 37" xml:space="preserve">
<g id="Layer_2" display="none">
	<g display="inline">
		<rect x="-156.814" y="-53.45" width="486" height="159.334"/>
		<path d="M329.686,106.384h-487V-53.95h487V106.384z M-156.314,105.384h485V-52.95h-485V105.384z"/>
	</g>
</g>
<g id="Layer_1">
</g>
<g id="Layer_3">
	<g>
		<g>
			<path fill="none" d="M89.664,33.355l-0.32,0.476l-0.322-0.477c-0.244-0.365-0.596-0.575-0.965-0.575
				c-0.24,0-0.469,0.097-0.67,0.259c-0.109,0.088-0.211,0.189-0.297,0.317l-0.322,0.476l-0.135-0.2l-0.186-0.276
				c-0.246-0.365-0.598-0.575-0.965-0.575c-0.713,0-1.294,0.766-1.294,1.706c0,1.307,0.093,1.733,0.641,1.733h6.393
				c-0.25-0.536-0.252-1.232-0.252-1.708c0-0.532,0.143-1.022,0.385-1.427c-0.207-0.189-0.455-0.305-0.725-0.305
				C90.264,32.779,89.91,32.989,89.664,33.355z"/>
			<path fill="none" d="M107.076,33.368l-0.316,0.445l-0.316-0.445c-0.27-0.379-0.66-0.597-1.072-0.597
				c-0.412,0-0.805,0.218-1.074,0.597l-0.316,0.445l-0.316-0.445c-0.267-0.38-0.656-0.597-1.072-0.597
				c-0.779,0-1.414,0.769-1.414,1.714c0,1.211,0.111,1.74,0.768,1.74h6.904c0.609,0,0.713-0.43,0.713-1.715
				c0-0.971-0.635-1.739-1.414-1.739C107.734,32.771,107.344,32.988,107.076,33.368z"/>
			<path fill="none" d="M87.586,17.424c-0.408,0.019-0.734,0.202-0.998,0.559c-1.6,2.175-0.396,9.65,0.617,14.248
				c0.264-0.142,0.551-0.225,0.852-0.225c0.477,0,0.926,0.19,1.287,0.534c0.363-0.344,0.812-0.534,1.287-0.534
				c0.459,0,0.883,0.182,1.227,0.486c0.104-0.09,0.215-0.167,0.334-0.233v-7.631c-1.568-1.423-2.764-3.22-3.475-5.274
				c-0.219-0.627-0.385-1.265-0.502-1.906c-0.141-0.017-0.285-0.028-0.436-0.028C87.717,17.419,87.652,17.421,87.586,17.424z"/>
			<path fill="none" d="M98.713,32.771c-0.412,0-0.803,0.217-1.068,0.597l-0.316,0.445l-0.316-0.445
				c-0.27-0.379-0.662-0.597-1.074-0.597c-0.414,0-0.803,0.218-1.072,0.597l-0.318,0.445l-0.314-0.445
				c-0.268-0.38-0.658-0.597-1.072-0.597c-0.779,0-1.414,0.769-1.414,1.714c0,1.211,0.109,1.74,0.764,1.74h6.908
				c0.609,0,0.713-0.43,0.713-1.715C100.131,33.54,99.494,32.771,98.713,32.771z"/>
			<path fill="none" d="M95.938,31.997c0.514,0,1.002,0.199,1.389,0.56c0.146-0.137,0.311-0.243,0.482-0.331l0.727-4.476
				c-1.145-0.205-2.256-0.566-3.324-1.084c-0.473-0.229-0.924-0.487-1.357-0.768l1.049,6.394
				C95.217,32.104,95.568,31.997,95.938,31.997z"/>
			<path fill="none" d="M105.371,31.997c0.514,0,1,0.199,1.389,0.56c0.113-0.107,0.24-0.195,0.371-0.273l1.105-6.748
				c-1.416,1.016-3.035,1.746-4.756,2.122l0.764,4.694C104.58,32.125,104.967,31.997,105.371,31.997z"/>
			<path fill="none" d="M100.656,33.336c0.367-0.799,1.098-1.339,1.936-1.339c0.256,0,0.504,0.049,0.734,0.142l-0.701-4.324
				c-0.605,0.09-1.223,0.137-1.844,0.137c-0.465,0-0.928-0.025-1.385-0.076l-0.668,4.123
				C99.564,32.004,100.291,32.546,100.656,33.336z"/>
			<path fill="none" d="M94.004,32.194l-0.941-5.741v5.55c0.033-0.002,0.064-0.006,0.098-0.006
				C93.457,31.997,93.738,32.069,94.004,32.194z"/>
			<path fill="none" d="M95.605,3.007l-3.873-2.142l0,0c-0.004,0-0.184-0.07-0.389-0.07c-0.264,0-0.443,0.116-0.562,0.366
				c-0.43,0.883-2.959,6.226-3.203,6.742c-0.014,0.079-0.019,0.228,0.035,0.299c0.051,0.066,0.193,0.076,0.271,0.076v0.388
				l0.014-0.388c0.59-0.007,1.768-0.721,2.373-1.17L95.605,3.007z"/>
			<path fill="none" d="M119.465,7.678c-0.434-0.307-1.604-0.444-2.568-0.444l-5.285,0.856l1.912,4.079l0,0
				c0.002,0,0.256,0.408,0.621,0.409c0.102,0,0.209-0.032,0.322-0.093c0.717-0.385,3.854-3.22,5.002-4.28
				c0.07-0.06,0.188-0.196,0.184-0.298C119.648,7.819,119.533,7.726,119.465,7.678z"/>
			<path fill="#FFFFFF" d="M107.131,32.284c-0.131,0.078-0.258,0.166-0.371,0.273c-0.389-0.361-0.875-0.56-1.389-0.56
				c-0.404,0-0.791,0.128-1.127,0.355l-0.764-4.694c-0.281,0.062-0.568,0.114-0.855,0.156l0.701,4.324
				c-0.23-0.093-0.479-0.142-0.734-0.142c-0.838,0-1.568,0.54-1.936,1.339c-0.365-0.79-1.092-1.332-1.928-1.338l0.668-4.123
				c-0.289-0.031-0.576-0.073-0.861-0.124l-0.727,4.476c-0.172,0.088-0.336,0.194-0.482,0.331c-0.387-0.361-0.875-0.56-1.389-0.56
				c-0.369,0-0.721,0.106-1.035,0.297l-1.049-6.394c-0.592-0.38-1.149-0.805-1.662-1.272v7.631c-0.119,0.066-0.23,0.144-0.334,0.233
				c-0.344-0.305-0.768-0.486-1.227-0.486c-0.475,0-0.924,0.19-1.287,0.534c-0.361-0.344-0.811-0.534-1.287-0.534
				c-0.301,0-0.588,0.083-0.852,0.225c-1.014-4.598-2.217-12.073-0.617-14.248c0.264-0.357,0.59-0.54,0.998-0.559
				c0.066-0.003,0.131-0.005,0.193-0.005c0.15,0,0.295,0.011,0.436,0.028c-0.055-0.294-0.096-0.589-0.127-0.883
				c-0.176-0.012-0.354-0.018-0.541-0.01c-0.678,0.03-1.238,0.337-1.66,0.913c-1.901,2.583-0.49,10.571,0.426,14.754
				c-0.26-0.136-0.539-0.215-0.83-0.215c-1.141,0-2.068,1.111-2.068,2.505c0,1.047,0,2.481,1.416,2.481h6.404
				c0.244,0,0.445-0.046,0.615-0.126C92.031,36.95,92.246,37,92.51,37h6.908c0.682,0,1.049-0.315,1.25-0.756
				c0.211,0.435,0.59,0.756,1.277,0.756h6.904c1.488,0,1.488-1.498,1.488-2.515c0-1.372-0.982-2.488-2.189-2.488
				c-0.029,0-0.059,0.007-0.09,0.009l1.195-7.286c-0.326,0.288-0.664,0.563-1.018,0.816L107.131,32.284z M93.062,26.453l0.941,5.741
				c-0.266-0.125-0.547-0.197-0.844-0.197c-0.033,0-0.064,0.004-0.098,0.006V26.453z M90.971,34.511
				c0,0.476,0.002,1.172,0.252,1.708H84.83c-0.548,0-0.641-0.427-0.641-1.733c0-0.94,0.581-1.706,1.294-1.706
				c0.367,0,0.719,0.21,0.965,0.575l0.186,0.276l0.135,0.2l0.322-0.476c0.086-0.128,0.188-0.229,0.297-0.317
				c0.201-0.162,0.43-0.259,0.67-0.259c0.369,0,0.721,0.21,0.965,0.575l0.322,0.477l0.32-0.476c0.246-0.366,0.6-0.576,0.967-0.576
				c0.27,0,0.518,0.115,0.725,0.305C91.113,33.488,90.971,33.979,90.971,34.511z M99.418,36.226H92.51
				c-0.654,0-0.764-0.529-0.764-1.74c0-0.945,0.635-1.714,1.414-1.714c0.414,0,0.805,0.217,1.072,0.597l0.314,0.445l0.318-0.445
				c0.27-0.379,0.658-0.597,1.072-0.597c0.412,0,0.805,0.218,1.074,0.597l0.316,0.445l0.316-0.445
				c0.266-0.38,0.656-0.597,1.068-0.597c0.781,0,1.418,0.769,1.418,1.739C100.131,35.796,100.027,36.226,99.418,36.226z
				 M108.148,32.771c0.779,0,1.414,0.769,1.414,1.739c0,1.285-0.104,1.715-0.713,1.715h-6.904c-0.656,0-0.768-0.529-0.768-1.74
				c0-0.945,0.635-1.714,1.414-1.714c0.416,0,0.805,0.217,1.072,0.597l0.316,0.445l0.316-0.445c0.27-0.379,0.662-0.597,1.074-0.597
				c0.412,0,0.803,0.218,1.072,0.597l0.316,0.445l0.316-0.445C107.344,32.988,107.734,32.771,108.148,32.771z"/>
		</g>
		<polygon fill="#FFFFFF" points="0.88,33.054 0.88,10.602 6.313,10.602 6.313,28.562 18.626,28.562 18.626,33.054 		"/>
		<path fill="#FFFFFF" d="M31.889,33.438c-7.622,0-13.089-5.164-13.089-11.547v-0.064c0-6.382,5.538-11.61,13.159-11.61
			c7.62,0,13.088,5.164,13.088,11.547v0.063C45.047,28.21,39.509,33.438,31.889,33.438 M39.368,21.827
			c0-3.848-3.104-7.056-7.479-7.056s-7.408,3.143-7.408,6.992v0.063c0,3.85,3.104,7.056,7.478,7.056
			c4.375,0,7.409-3.143,7.409-6.991V21.827z"/>
		<polygon fill="#FFFFFF" points="52.844,15.093 52.844,19.871 64.627,19.871 64.627,24.361 52.844,24.361 52.844,33.054 
			47.411,33.054 47.411,10.602 66.213,10.602 66.213,15.093 		"/>
		<polygon fill="#FFFFFF" points="142.52,10.441 146.225,10.441 146.225,33.054 140.861,33.054 140.861,15.445 136.557,16.407 
			135.428,12.367 		"/>
		<path fill="#FFFFFF" d="M154.973,17.722l-3.811-2.79c2.434-3.014,4.797-4.65,9.209-4.65c5.256,0,8.5,2.758,8.5,6.959
			c0,3.752-2.115,5.645-6.49,8.724l-4.021,2.822h10.76v4.267h-18.275v-3.913l8.221-6.126c3.07-2.311,4.27-3.527,4.27-5.388
			c0-1.894-1.375-2.919-3.316-2.919C158.111,14.708,156.807,15.67,154.973,17.722"/>
		<path fill="none" d="M115.443,17.983c-0.264-0.357-0.59-0.54-0.998-0.559c-0.066-0.003-0.131-0.005-0.193-0.005
			c-4.137,0-4.41,6.517-4.412,6.583v8.208c0.252-0.132,0.531-0.205,0.822-0.205c0.475,0,0.926,0.19,1.287,0.534
			c0.361-0.344,0.812-0.534,1.287-0.534c0.477,0,0.928,0.19,1.289,0.534c0.09-0.086,0.184-0.161,0.285-0.229
			C115.826,27.722,117.053,20.17,115.443,17.983z"/>
		<g>
			<path fill="none" d="M89.344,32.54c0.363-0.344,0.812-0.534,1.287-0.534c0.623,0,1.18,0.333,1.561,0.855v-8.874
				c-0.002-0.051-0.283-6.568-4.412-6.568c-0.062,0-0.127,0.002-0.193,0.005c-0.408,0.019-0.734,0.202-0.998,0.559
				c-1.6,2.175-0.396,9.65,0.617,14.248c0.264-0.142,0.551-0.225,0.852-0.225C88.533,32.006,88.982,32.196,89.344,32.54z"/>
		</g>
		<g>
			<path fill="none" d="M102.785,23.371l1.459,8.981c0.336-0.228,0.723-0.355,1.127-0.355c0.514,0,1,0.199,1.389,0.56
				c0.113-0.107,0.24-0.195,0.371-0.273l1.461-8.913H102.785z"/>
		</g>
		<g>
			<path fill="none" d="M87.779,17.419c-0.062,0-0.127,0.002-0.193,0.005c-0.408,0.019-0.734,0.202-0.998,0.559
				c-1.6,2.175-0.396,9.65,0.617,14.248c0.264-0.142,0.551-0.225,0.852-0.225c0.477,0,0.926,0.19,1.287,0.534
				c0.363-0.344,0.812-0.534,1.287-0.534c0.459,0,0.883,0.182,1.227,0.486c0.104-0.09,0.215-0.167,0.334-0.233v-8.271
				C92.189,23.937,91.908,17.419,87.779,17.419z"/>
			<path fill="none" d="M89.664,33.355l-0.32,0.476l-0.322-0.477c-0.244-0.365-0.596-0.575-0.965-0.575
				c-0.24,0-0.469,0.097-0.67,0.259c-0.109,0.088-0.211,0.189-0.297,0.317l-0.322,0.476l-0.135-0.2l-0.186-0.276
				c-0.246-0.365-0.598-0.575-0.965-0.575c-0.713,0-1.294,0.766-1.294,1.706c0,1.307,0.093,1.733,0.641,1.733h6.393
				c-0.25-0.536-0.252-1.232-0.252-1.708c0-0.532,0.143-1.022,0.385-1.427c-0.207-0.189-0.455-0.305-0.725-0.305
				C90.264,32.779,89.91,32.989,89.664,33.355z"/>
			<g>
				<path fill="none" d="M88.057,32.006c0.477,0,0.926,0.19,1.287,0.534c0.363-0.344,0.812-0.534,1.287-0.534
					c0.459,0,0.883,0.182,1.227,0.486c0.104-0.09,0.215-0.167,0.334-0.233v-8.271c-0.002-0.051-0.283-6.568-4.412-6.568
					c-0.062,0-0.127,0.002-0.193,0.005c-0.408,0.019-0.734,0.202-0.998,0.559c-1.6,2.175-0.396,9.65,0.617,14.248
					C87.469,32.089,87.756,32.006,88.057,32.006z"/>
				<path fill="none" d="M93.062,32.003c0.033-0.002,0.064-0.006,0.098-0.006c0.297,0,0.578,0.072,0.844,0.197l-0.941-5.741V32.003z
					"/>
				<path fill="none" d="M89.664,33.355l-0.32,0.476l-0.322-0.477c-0.244-0.365-0.596-0.575-0.965-0.575
					c-0.24,0-0.469,0.097-0.67,0.259c-0.109,0.088-0.211,0.189-0.297,0.317l-0.322,0.476l-0.135-0.2l-0.186-0.276
					c-0.246-0.365-0.598-0.575-0.965-0.575c-0.713,0-1.294,0.766-1.294,1.706c0,1.307,0.093,1.733,0.641,1.733h6.393
					c-0.25-0.536-0.252-1.232-0.252-1.708c0-0.532,0.143-1.022,0.385-1.427c-0.207-0.189-0.455-0.305-0.725-0.305
					C90.264,32.779,89.91,32.989,89.664,33.355z"/>
			</g>
		</g>
		<g>
			<path fill="#FFFFFF" d="M96.854,9.144c0.805,0.391,1.771,0.056,2.16-0.749c0.393-0.803,0.057-1.772-0.748-2.161
				c-0.803-0.391-1.771-0.055-2.162,0.749C95.713,7.788,96.051,8.754,96.854,9.144"/>
		</g>
		<g>
			<path fill="#FFFFFF" d="M107.959,14.536c-0.805-0.39-1.139-1.359-0.75-2.163c0.389-0.804,1.357-1.137,2.162-0.749
				c0.805,0.39,1.139,1.358,0.75,2.162C109.729,14.59,108.762,14.924,107.959,14.536"/>
		</g>
		<g>
			<path fill="#FFFFFF" d="M102.605,23.377c-0.232-0.212-1.537,0.75-2.4,1.432l1.445,0.7
				C102.205,24.628,102.807,23.558,102.605,23.377"/>
		</g>
		<g>
			<path fill="#FFFFFF" d="M93.158,18.794c-0.266-0.047-0.734,1.09-1.082,2.072l1.443,0.699
				C93.521,20.466,93.469,18.846,93.158,18.794"/>
		</g>
		<path fill="#FFFFFF" d="M88.26,15.157l0.639-4.555H68.436v4.555h7.515v7.867c-0.03,0.042-0.061,0.084-0.085,0.132
			c-0.098,0.195-0.238,0.657,0.085,1.288v8.61h5.434v-4.814c0.863,0.255,1.824,0.417,2.883,0.417c0.426,0,0.858-0.024,1.276-0.076
			l0.674-0.081l-0.682-6.144L84.67,22.74c-0.016,0.007-1.456,0.627-3.286,0.749v-8.333H88.26z M84.846,23.139l0.321-0.143
			l0.569,5.121l-0.244,0.03c-0.408,0.05-0.82,0.073-1.225,0.073c-4.249,0-6.901-2.688-7.614-3.512
			c-0.616-0.714-0.483-1.188-0.397-1.358c0.109-0.222,0.328-0.353,0.583-0.353c0.134,0,0.272,0.038,0.399,0.109
			c1.019,0.559,2.205,0.842,3.529,0.842C82.986,23.948,84.828,23.146,84.846,23.139z"/>
		<path fill="#FFFFFF" d="M109.842,34.351c0,0.049-0.002,0.098-0.002,0.148c0,0.496-0.062,0.873-0.094,1.15
			C109.838,35.246,109.918,34.794,109.842,34.351z"/>
		<path fill="#FFFFFF" d="M90.699,20.179c0,0,4.064,6.596,12.359,5.988L90.699,20.179z"/>
		<path fill="#FFFFFF" d="M119.912,7.045c-0.768-0.543-2.504-0.585-3.016-0.585l-5.955,0.954c-1.174-1.541-2.713-2.84-4.572-3.742
			c-1.758-0.853-3.631-1.285-5.57-1.285c-1.359,0-2.689,0.228-3.949,0.642l0.164-0.127l-4.936-2.73
			c-0.035-0.016-0.346-0.152-0.734-0.152c-0.561,0-1.008,0.285-1.262,0.803c-0.449,0.927-3.195,6.73-3.225,6.789l-0.023,0.066
			c-0.014,0.059-0.146,0.592,0.164,0.996c0.133,0.173,0.395,0.38,0.887,0.38l0.023,0c0.676-0.008,1.602-0.516,2.211-0.904
			c-0.303,0.46-0.582,0.939-0.826,1.441c-1.066,2.2-1.471,4.603-1.205,6.976c0.031,0.295,0.072,0.589,0.127,0.883
			c0.117,0.641,0.283,1.279,0.502,1.906c0.711,2.055,1.906,3.852,3.475,5.274c0.514,0.467,1.07,0.892,1.662,1.272
			c0.434,0.28,0.885,0.538,1.357,0.768c1.068,0.518,2.18,0.879,3.324,1.084c0.285,0.051,0.572,0.093,0.861,0.124
			c0.457,0.051,0.92,0.076,1.385,0.076c0.621,0,1.238-0.047,1.844-0.137c0.287-0.042,0.574-0.094,0.855-0.156
			c1.721-0.376,3.34-1.106,4.756-2.122c0.354-0.253,0.691-0.528,1.018-0.816c1.244-1.098,2.287-2.437,3.033-3.97
			c1.193-2.463,1.521-5.123,1.107-7.637c0.199,0.134,0.449,0.239,0.75,0.239c0.23,0,0.463-0.062,0.689-0.184
			c0.934-0.5,4.729-3.997,5.143-4.377c0.047-0.04,0.469-0.397,0.451-0.909C120.42,7.66,120.324,7.335,119.912,7.045z M100.799,3.258
			c1.807,0,3.553,0.403,5.189,1.198c3.701,1.795,6.053,5.267,6.59,9.063c-0.426-0.931-0.979-1.964-1.619-2.732
			c-2.443-2.928-3.305-2.981-3.828-2.647c-0.518,0.331-1.037,2.468-1.447,4.671c-0.441-1.095-1.293-2.062-2.449-2.625
			c-0.662-0.322-1.406-0.493-2.152-0.493c-0.609,0-1.195,0.117-1.736,0.316c3.006-3.294,3.232-3.925,2.965-4.367
			c-0.561-0.916-2.256-1.135-4.631-1.18c-0.908-0.014-1.93,0.16-2.818,0.369C96.627,3.821,98.656,3.258,100.799,3.258z
			 M87.898,8.277l-0.014,0.388V8.277c-0.078,0-0.221-0.01-0.271-0.076c-0.055-0.071-0.049-0.22-0.035-0.299
			c0.244-0.516,2.773-5.859,3.203-6.742c0.119-0.25,0.299-0.366,0.562-0.366c0.205,0,0.385,0.07,0.389,0.07l0,0l3.873,2.142
			l-5.334,4.101C89.666,7.556,88.488,8.269,87.898,8.277z M90.078,9.969c0.684-1.409,1.615-2.631,2.723-3.637
			c0.033-0.004,0.064-0.003,0.096-0.015c0.029-0.011,2.771-1.02,4.767-0.982c0.818,0.016,3.24,0.062,3.83,0.67
			c-0.334,0.807-3.189,3.857-4.15,4.887c-0.354,0.377-0.588,0.628-0.738,0.807c-1.094-0.367-2.336-0.59-3.734-0.614
			c-1.525,0.176-2.869,0.685-3.582,0.996C89.482,11.362,89.744,10.655,90.078,9.969z M100.781,27.079
			c-1.807,0-3.553-0.402-5.189-1.197c-2.861-1.389-5.012-3.809-6.053-6.814c-0.668-1.927-0.826-3.946-0.49-5.902
			c0.496,1.202,1.664,3.433,3.914,4.81c2.633,1.611,5.875,0.33,5.875,0.33l1.717-3.32l0.307-0.833
			c-0.268-0.167-0.646-0.413-1.074-0.694c-0.494-0.412-1.051-0.788-1.67-1.114c-0.08-0.054-0.156-0.106-0.232-0.157
			c0.641-0.982,1.879-1.622,3.197-1.622c0.623,0,1.219,0.136,1.771,0.405c1.77,0.861,2.695,2.942,2.129,4.614
			c-1.209-0.37-2.832-0.879-3.498-1.118l-0.457,0.93l0,0l-1.471,3.23c0,0,0.635,2.757,3.389,4.151
			c2.391,1.213,5.252,0.731,6.688,0.357C107.402,25.598,104.184,27.079,100.781,27.079z M111.502,20.368
			c-0.336,0.691-0.738,1.337-1.193,1.939c-0.516-1.166-1.764-3.854-2.67-4.688c-0.578-0.581-1.119-1.026-1.648-1.379
			c0.008-0.023,0.02-0.044,0.023-0.069c0.459-3.127,1.188-6.745,1.588-7.288c0.129,0.016,0.811,0.212,2.687,2.46
			c1.354,1.625,2.354,4.711,2.363,4.742c0.002,0.003,0.004,0.006,0.006,0.009C112.547,17.541,112.172,18.989,111.502,20.368z
			 M119.469,8.205c-1.148,1.06-4.285,3.895-5.002,4.28c-0.113,0.061-0.221,0.093-0.322,0.093c-0.365-0.001-0.619-0.409-0.621-0.409
			l0,0l-1.912-4.079l5.285-0.856c0.965,0,2.135,0.137,2.568,0.444c0.068,0.048,0.184,0.142,0.188,0.228
			C119.656,8.008,119.539,8.144,119.469,8.205z"/>
		<path fill="#FFFFFF" d="M126.256,19.742l6.244-5.42v-3.721h-14.904l-1.783,1.179v3.054h9.703l-5.891,5.389l0.846,3.143h2.258
			c3.103,0,4.834,1.026,4.834,2.886c0,1.701-1.447,2.758-3.494,2.758c-2.504,0-4.268-0.962-5.961-2.691l-1.527,1.322
			c0.606-3.937,0.891-8.373-0.435-10.175c-0.424-0.575-0.981-0.882-1.66-0.913c-0.354-0.016-0.686,0.008-1,0.061
			c0.592-5.234-2.113-10.516-7.115-12.944c-1.758-0.853-3.631-1.285-5.57-1.285c-4.865,0-9.383,2.827-11.506,7.203
			c-1.49,3.071-1.695,6.538-0.576,9.765c1.115,3.225,3.422,5.822,6.494,7.313c1.758,0.853,3.631,1.284,5.57,1.284
			c3.029,0,5.922-1.096,8.188-2.979v8.1c0.559,0.374,0.797,0.821,0.873,1.278c0.014-0.872,0.146-1.571,0.82-1.571
			c0.367,0,0.721,0.21,0.967,0.576l0.322,0.476l0.32-0.477c0.246-0.365,0.596-0.575,0.965-0.575s0.721,0.21,0.967,0.576l0.324,0.476
			l0.318-0.477c0.246-0.365,0.598-0.575,0.965-0.575c0.715,0,1.295,0.766,1.295,1.731c0,1.281-0.092,1.708-0.639,1.708h-6.408
			c-0.34,0-0.355-0.188-0.312-0.569c-0.176,0.762-0.395,1.343,0.312,1.343h6.408c1.414,0,1.414-1.435,1.414-2.507
			c0-1.368-0.928-2.479-2.07-2.479c-0.014,0-0.029,0.004-0.045,0.004c0.068-0.317,0.139-0.656,0.211-1.011
			c1.984,1.482,4.594,2.439,8.023,2.439c5.502,0,8.889-3.111,8.889-7.378C132.889,21.859,129.645,20.255,126.256,19.742z
			 M104.211,26.719l-0.199-0.096c-1.039,0.297-2.125,0.456-3.23,0.456c-1.807,0-3.553-0.402-5.189-1.197
			c-2.646-1.283-4.682-3.452-5.797-6.147l-0.215-0.105c-0.828-2.169-1.113-4.573-0.582-6.915c0.029,0.082,0.062,0.156,0.092,0.236
			c0.193-1.02,0.521-2.021,0.988-2.981c2.01-4.14,6.117-6.711,10.721-6.711c1.807,0,3.553,0.403,5.189,1.198
			c4.525,2.196,7.029,6.898,6.668,11.635c0,0.002,0.002,0.003,0.002,0.005c-0.018,0.225-0.043,0.449-0.074,0.672
			c-0.004,0.038-0.004,0.077-0.01,0.115c-0.002,0.001-0.004,0.002-0.006,0.002c-0.055,0.371-0.125,0.74-0.215,1.108
			c0.002-0.001,0.002-0.002,0.004-0.003c-0.01,0.036-0.02,0.071-0.029,0.107c-0.031,0.125-0.066,0.251-0.102,0.375
			c-0.018,0.064-0.037,0.129-0.057,0.193c-0.039,0.133-0.084,0.264-0.129,0.395c-0.021,0.06-0.041,0.12-0.062,0.182
			c-0.049,0.135-0.104,0.27-0.158,0.404c-0.023,0.056-0.043,0.11-0.066,0.164c-0.078,0.188-0.162,0.373-0.252,0.558
			c-0.094,0.194-0.193,0.384-0.299,0.57c-0.039,0.07-0.08,0.137-0.121,0.206c-0.066,0.114-0.135,0.228-0.205,0.34
			c-0.051,0.079-0.102,0.157-0.154,0.235c-0.07,0.104-0.141,0.208-0.213,0.311c-0.051,0.068-0.098,0.137-0.148,0.203
			c-0.018,0.025-0.033,0.05-0.053,0.074c0-0.002,0-0.002,0-0.004c-0.107,0.14-0.213,0.279-0.324,0.415
			c0.039-0.243,0.092-0.51,0.154-0.791c-0.16-0.353-0.357-0.776-0.578-1.225c-0.283,0.861-0.449,1.732-0.531,2.501
			c0.32-0.083,0.646-0.175,0.988-0.288C108.506,24.781,106.426,26.026,104.211,26.719z M115.547,28.535c0,0-0.605,3.179-0.736,3.776
			c-0.102,0.067-0.195,0.143-0.285,0.229c-0.361-0.344-0.812-0.534-1.289-0.534c-0.475,0-0.926,0.19-1.287,0.534
			c-0.361-0.344-0.812-0.534-1.287-0.534c-0.291,0-0.57,0.073-0.822,0.205v-8.04c0.986-0.986,1.822-2.135,2.447-3.421
			c0.506-1.043,0.854-2.123,1.059-3.211c0.281-0.076,0.578-0.12,0.906-0.12c0.062,0,0.127,0.002,0.193,0.005
			c0.408,0.019,0.734,0.202,0.998,0.559C116.66,19.635,116.256,24.35,115.547,28.535z"/>
	</g>
</g>
</svg>
