<?xml version="1.0" encoding="utf-8"?>
<!-- Generator: Adobe Illustrator 17.0.2, SVG Export Plug-In . SVG Version: 6.00 Build 0)  -->
<!DOCTYPE svg PUBLIC "-//W3C//DTD SVG 1.1//EN" "http://www.w3.org/Graphics/SVG/1.1/DTD/svg11.dtd">
<svg version="1.1" id="Layer_1" xmlns="http://www.w3.org/2000/svg" xmlns:xlink="http://www.w3.org/1999/xlink" x="0px" y="0px"
	 width="203px" height="23px" viewBox="0 0 203 23" enable-background="new 0 0 203 23" xml:space="preserve">
<g>
	<path fill="#FFFFFF" d="M21.839,0.197L9.016,22.802H5.37L2.098,0.197h2.743l2.724,20.647h0.09L19.096,0.197H21.839z"/>
	<path fill="#FFFFFF" d="M30.893,18.01l-0.123,0.573c-0.89,4.189-4.16,4.4-7.686,4.4c-6.18,0-6.678-2.05-5.396-8.078
		c1.397-6.57,3.17-8.107,8.837-8.107c5.123,0,6.501,1.176,5.258,7.023l-0.34,1.597H20.051c-1.065,5.003-0.837,5.637,3.442,5.637
		c3.255,0,4.355-0.211,4.83-2.441l0.128-0.604H30.893z M29.382,13.489c0.833-4.491,0.349-4.762-3.268-4.762
		c-4.31,0-4.697,1.114-5.653,4.762H29.382z"/>
	<path fill="#FFFFFF" d="M38.885,8.907h0.061c1.157-1.898,3.523-2.109,5.331-2.109c4.068,0,5.797,1.086,4.802,5.485l-2.237,10.519
		h-2.381l2.275-10.699c0.615-2.893-0.397-3.375-3.079-3.375c-3.889,0-4.988,1.205-5.765,4.853l-1.96,9.222H33.55l3.364-15.823h2.381
		L38.885,8.907z"/>
	<path fill="#FFFFFF" d="M62.937,8.907h-6.118l-2.134,10.037c-0.335,1.718,0.033,2.11,1.782,2.11c2.231,0,2.48-1.176,2.8-2.683
		l0.25-1.176h2.261l-0.25,1.176c-0.666,3.134-2.276,4.611-5.531,4.611c-3.707,0-4.327-1.055-3.538-4.763l1.98-9.313h-2.11
		l0.41-1.929h2.11l0.814-3.827h2.38l-0.813,3.827h6.118L62.937,8.907z"/>
	<path fill="#FFFFFF" d="M74.297,20.692h-0.061c-1.254,1.929-3.35,2.291-5.43,2.291c-4.189,0-5.307-1.688-4.423-5.848l2.16-10.157
		h2.381l-2.16,10.157c-0.544,2.562-0.652,3.919,2.422,3.919c3.346,0,5.179-0.542,5.98-4.31l2.076-9.767h2.382l-3.364,15.823h-2.412
		L74.297,20.692z"/>
	<path fill="#FFFFFF" d="M86.405,6.979l-0.538,1.96l0.048,0.06c1.185-1.748,3.18-2.2,4.958-2.2c3.045,0,4.081,1.507,3.453,4.461
		l-0.244,1.146h-2.26l0.223-1.055c0.418-1.96-0.105-2.622-2.094-2.622c-2.954,0-4.22,1.416-4.755,4.22l-2.096,9.854H80.72
		l3.365-15.823H86.405z"/>
	<path fill="#FFFFFF" d="M109.348,18.01l-0.121,0.573c-0.893,4.189-4.162,4.4-7.689,4.4c-6.177,0-6.677-2.05-5.395-8.078
		c1.397-6.57,3.17-8.107,8.836-8.107c5.125,0,6.504,1.176,5.26,7.023l-0.342,1.597H98.504c-1.063,5.003-0.836,5.637,3.443,5.637
		c3.255,0,4.356-0.211,4.829-2.441l0.127-0.604H109.348z M107.836,13.489c0.835-4.491,0.35-4.762-3.268-4.762
		c-4.309,0-4.697,1.114-5.653,4.762H107.836z"/>
	<path fill="#FFFFFF" d="M124.994,9.059c6.588,0.482,8.066,1.326,6.965,6.511c-0.795,3.737-1.426,7.414-11.371,7.414
		c-5.758,0-9.561-0.121-7.982-7.536h5.785c-0.498,2.351,0.293,2.593,3.246,2.593c2.834,0,3.807-0.18,4.209-2.079
		c0.418-1.96,0.08-1.93-2.715-2.109l-1.307-0.091c-5.492-0.392-8.754-0.361-7.377-6.843c1.379-6.479,5.115-6.901,11.021-6.901
		c4.943,0,9.143,0.091,7.816,6.33l-0.197,0.934h-5.787c0.494-2.32-0.471-2.32-2.883-2.32c-3.254,0-3.666,0.663-3.936,1.929
		c-0.385,1.808,0.477,1.868,2.049,1.989L124.994,9.059z"/>
	<path fill="#FFFFFF" d="M153.357,22.802h-6.027l1.883-8.86h-7.865l-1.885,8.86h-6.029l4.807-22.605h6.029l-1.809,8.499h7.867
		l1.809-8.499h6.025L153.357,22.802z"/>
	<path fill="#FFFFFF" d="M157.975,14.694l1.357-6.39c1.482-6.962,6.104-8.288,12.221-8.288c6.119,0,10.178,1.326,8.697,8.288
		l-1.359,6.39c-1.48,6.962-6.102,8.289-12.219,8.289C160.553,22.983,156.494,21.656,157.975,14.694z M172.824,14.031l1.084-5.093
		c0.711-3.346-0.336-3.678-3.469-3.678c-3.135,0-4.23,0.332-5.031,3.678l-1.084,5.093c-0.627,3.377,0.328,3.707,3.461,3.707
		C170.92,17.738,172.105,17.408,172.824,14.031z"/>
	<path fill="#FFFFFF" d="M190.008,22.802h-6.029l3.693-17.36h-5.789L183,0.197h17.902l-1.115,5.244h-6.088L190.008,22.802z"/>
</g>
</svg>
