<?xml version="1.0" encoding="utf-8"?>
<!-- Generator: Adobe Illustrator 17.0.2, SVG Export Plug-In . SVG Version: 6.00 Build 0)  -->
<!DOCTYPE svg PUBLIC "-//W3C//DTD SVG 1.1//EN" "http://www.w3.org/Graphics/SVG/1.1/DTD/svg11.dtd">
<svg version="1.1" id="Layer_1" xmlns="http://www.w3.org/2000/svg" xmlns:xlink="http://www.w3.org/1999/xlink" x="0px" y="0px"
	 width="180px" height="32px" viewBox="0 0 180 32" enable-background="new 0 0 180 32" xml:space="preserve">
<g>
	<path fill="#FFFFFF" d="M76.569,23.098v-4.66c-0.551-1.301-1.397-2.339-2.551-3.114c-1.152-0.775-2.479-1.166-3.979-1.166
		c-1.955,0-3.608,0.653-4.96,1.954c-1.353,1.301-2.025,2.852-2.025,4.652c0,1.809,0.673,3.357,2.025,4.66
		c1.352,1.301,3.005,1.953,4.96,1.953c1.499,0,2.839-0.404,4.018-1.205C75.23,25.371,76.069,24.346,76.569,23.098 M76.569,0.489
		h4.505v30.79h-4.505v-1.428c-1.999,1.351-4.178,2.031-6.529,2.031c-3.204,0-5.921-1.078-8.151-3.23
		c-2.224-2.152-3.338-4.779-3.338-7.889c0-3.102,1.114-5.729,3.338-7.882c2.23-2.152,4.947-3.229,8.151-3.229
		c2.352,0,4.53,0.673,6.529,2.025V0.489z"/>
	<path fill="#FFFFFF" d="M40.524,18.061h11.868c-0.251-1.051-0.917-1.962-1.993-2.737c-1.077-0.775-2.339-1.166-3.794-1.166
		C43.702,14.157,41.678,15.458,40.524,18.061 M56.896,27.377l-0.301,0.373c-2.454,2.754-5.505,4.133-9.163,4.133
		c-3.249,0-6.043-1.051-8.369-3.152c-2.333-2.109-3.492-4.762-3.492-7.967c0-3.102,1.038-5.729,3.114-7.882
		c2.076-2.152,4.716-3.229,7.92-3.229c3.204,0,5.799,1.013,7.773,3.044c1.979,2.025,2.967,4.743,2.967,8.146v1.73H40.224
		c0.403,1.498,1.269,2.678,2.595,3.523c1.326,0.852,2.864,1.281,4.614,1.281c2.557,0,4.504-0.902,5.857-2.703l0.378-0.525
		L56.896,27.377z"/>
	<polygon fill="#FFFFFF" points="13.699,31.279 9.188,31.279 0.102,0.489 4.837,0.489 11.821,24.295 17.524,9.505 21.882,9.505 
		27.887,24.596 34.871,0.489 39.601,0.489 30.521,31.279 25.861,31.279 19.703,15.733 	"/>
	<rect x="176.521" y="0.489" fill="#FFFFFF" width="3.377" height="30.79"/>
	<path fill="#FFFFFF" d="M170.543,25.801v-4.734c-1.558-1.449-3.582-2.18-6.088-2.18c-1.852,0-3.415,0.467-4.69,1.391
		c-1.275,0.93-1.916,2.166-1.916,3.717c0,1.256,0.564,2.295,1.691,3.121c1.128,0.826,2.589,1.236,4.39,1.236
		c1.102,0,2.319-0.25,3.646-0.75C168.902,27.102,169.889,26.5,170.543,25.801 M170.165,16.861c-0.802-2.601-2.628-3.902-5.479-3.902
		c-2.808,0-5.063,0.622-6.762,1.878l-1.428-2.929c2.652-1.455,5.382-2.179,8.189-2.179c2.998,0,5.293,0.884,6.869,2.666
		c1.576,1.774,2.364,4.191,2.364,7.247v11.637h-3.377v-1.352c-2.307,1.205-4.512,1.801-6.613,1.801
		c-2.749,0-5.018-0.711-6.793-2.141c-1.781-1.422-2.665-3.287-2.665-5.594c0-2.602,0.961-4.666,2.89-6.197
		c1.929-1.525,4.293-2.287,7.094-2.287C166.308,15.51,168.21,15.958,170.165,16.861z"/>
	<path fill="#FFFFFF" d="M149.422,10.178h3.377v21.102h-3.377V10.178z M149.307,7.211c-0.525-0.525-0.788-1.141-0.788-1.839
		c0-0.698,0.263-1.313,0.788-1.839c0.525-0.525,1.141-0.788,1.839-0.788c0.706,0,1.314,0.263,1.839,0.788
		c0.526,0.525,0.789,1.141,0.789,1.839c0,0.698-0.263,1.313-0.789,1.839c-0.525,0.525-1.133,0.788-1.839,0.788
		C150.447,7.999,149.832,7.736,149.307,7.211z"/>
	<path fill="#FFFFFF" d="M147.958,28.576c-2.102,2.203-4.703,3.307-7.805,3.307c-3.057,0-5.645-1.078-7.773-3.23
		c-2.127-2.152-3.19-4.779-3.19-7.889c0-3.102,1.063-5.729,3.19-7.882c2.128-2.152,4.717-3.229,7.773-3.229
		c3.102,0,5.703,1.103,7.805,3.307l-2.402,2.403c-1.448-1.558-3.249-2.333-5.402-2.333c-2.101,0-3.896,0.763-5.37,2.294
		c-1.48,1.525-2.217,3.339-2.217,5.44c0,2.104,0.737,3.922,2.217,5.447c1.474,1.525,3.269,2.287,5.37,2.287
		c2.153,0,3.954-0.774,5.402-2.326L147.958,28.576z"/>
	<path fill="#FFFFFF" d="M91.635,16.714c-2.704-0.301-4.89-1.114-6.568-2.441c-1.679-1.326-2.519-3.217-2.519-5.671
		c0-2.506,0.98-4.543,2.929-6.119c1.954-1.577,4.229-2.365,6.838-2.365c2.152,0,3.928,0.135,5.331,0.41
		c1.396,0.275,2.378,0.539,2.928,0.788c0.552,0.25,1.525,0.775,2.929,1.577l-1.653,3.082c-1.353-0.955-2.64-1.603-3.87-1.955
		c-1.224-0.353-3.114-0.525-5.664-0.525c-1.654,0-3.135,0.475-4.435,1.43c-1.301,0.948-1.948,2.179-1.948,3.678
		c0,2.8,1.896,4.384,5.703,4.73l4.203,0.455c2.608,0.148,4.774,0.999,6.498,2.55c1.73,1.551,2.589,3.582,2.589,6.082
		c0,2.602-0.975,4.793-2.929,6.574c-1.947,1.775-4.428,2.666-7.433,2.666c-2.704,0-4.89-0.244-6.568-0.719
		c-1.679-0.475-3.544-1.338-5.595-2.588l1.653-3.006c1.948,1.104,3.653,1.865,5.101,2.295c1.455,0.422,3.256,0.635,5.409,0.635
		c1.954,0,3.606-0.578,4.959-1.725c1.353-1.152,2.024-2.531,2.024-4.133c0-1.5-0.55-2.73-1.652-3.68
		c-1.103-0.947-2.454-1.479-4.057-1.576L91.635,16.714z"/>
	<path fill="#FFFFFF" d="M129.525,30.791v-1.426l-0.67,1.166h-0.288l-0.66-1.166v1.426h-0.287v-1.963h0.269l0.823,1.451l0.828-1.451
		h0.273v1.963H129.525z M125.462,29.115v-0.287h1.866v0.287h-0.794v1.676h-0.288v-1.676H125.462z"/>
	<path fill-rule="evenodd" clip-rule="evenodd" fill="#FFFFFF" d="M116.28,29.385l1.772,2.439c1.417-0.133,2.787-0.535,4.036-1.172
		c2.328-1.188,4.243-3.186,5.28-5.762l-3.437,1.115l-8.176,2.656L116.28,29.385z M124.195,12.158v3.62v8.595l0.846-0.275
		l2.867-0.932c0.594-2.615,0.208-5.264-0.942-7.522C126.29,14.32,125.354,13.13,124.195,12.158z M106.195,23.41l2.125-2.924
		l5.054-6.955l-0.846-0.275l-2.868-0.932c-1.46,1.279-2.605,2.957-3.249,4.938C105.74,19.328,105.704,21.447,106.195,23.41z
		 M123.009,5.099l-0.889-0.765h1.349l0.92,0.765l-4.341,4.871c0.142,0.039,0.283,0.082,0.424,0.128
		c0.802,0.261,1.555,0.604,2.252,1.017v3.015l-0.001,0.892l-8.174-2.656l-3.438-1.117c0.275-0.172,0.559-0.332,0.848-0.479
		c0.651-0.332,1.336-0.6,2.042-0.8l-4.339-4.869l0.92-0.765h1.347l-0.887,0.765l4.949,4.498l0.125-0.011l0.448-5.252h0.921
		l0.45,5.252l0.124,0.012L123.009,5.099z M114.119,28.914l-5.052-6.951l-0.522,0.721l-1.771,2.438
		c0.096,0.221,0.198,0.44,0.308,0.654c1.297,2.545,3.564,4.594,6.494,5.547c0.887,0.289,1.783,0.459,2.672,0.521L114.119,28.914z"/>
	<path fill-rule="evenodd" clip-rule="evenodd" fill="#FFFFFF" d="M118.288,9.023l2.559-3.723h1.28L118.288,9.023z M113.131,4.878
		h-1.159l1.304-1.116L113.131,4.878z M115.429,3.463l-0.654-0.561h1.552L115.429,3.463z M113.521,4.695l0.167-1.287l0.531-0.455
		l0.858,0.733L113.521,4.695z M118.618,3.463l-0.898-0.561h1.553L118.618,3.463z M118.968,3.687l0.858-0.733l0.532,0.456
		l0.167,1.287L118.968,3.687z M113.986,4.878l1.165-0.754l-0.143,0.754H113.986z M119.038,4.878l-0.142-0.754l1.163,0.754H119.038z
		 M117.577,4.878l0.938-0.803l0.152,0.803H117.577z M116.47,4.878h-1.09l0.151-0.803L116.47,4.878z M122.075,4.878h-1.159
		l-0.145-1.115L122.075,4.878z M111.92,5.301h1.279l2.559,3.723L111.92,5.301z"/>
	<path fill-rule="evenodd" clip-rule="evenodd" fill="#FFFFFF" d="M113.665,5.301l2.504,3.645l0.023-0.267l-1.16-3.378H113.665z
		 M115.424,5.301l0.847,2.464l0.21-2.464H115.424z M116.47,4.878l-0.938-0.803l-0.151,0.803H116.47z M115.009,4.878l0.143-0.754
		l-1.165,0.754H115.009z M113.275,3.762l-1.304,1.116h1.159L113.275,3.762z M113.688,3.408l-0.167,1.287l1.557-1.009l-0.858-0.733
		L113.688,3.408z M114.774,2.902l0.654,0.561l0.897-0.561H114.774z M117.023,2.946l-1.271,0.793l0.802,0.687l0.009-0.092h0.921
		l0.008,0.093l0.801-0.687L117.023,2.946z M117.72,2.902l0.898,0.561l0.654-0.561H117.72z M119.826,2.953l-0.858,0.733l1.558,1.01
		l-0.167-1.287L119.826,2.953z M120.06,4.878l-1.163-0.754l0.142,0.754H120.06z M118.667,4.878l-0.152-0.803l-0.938,0.803H118.667z
		 M117.566,5.301l0.211,2.459l0.846-2.459H117.566z M119.015,5.301l-1.159,3.372l0.023,0.27l2.503-3.642H119.015z M120.847,5.301
		l-2.559,3.723l3.839-3.723H120.847z M120.916,4.878h1.159l-1.304-1.115L120.916,4.878z M115.758,9.023l-2.559-3.723h-1.279
		L115.758,9.023z"/>
</g>
</svg>
