<?xml version="1.0" encoding="utf-8"?>
<!-- Generator: Adobe Illustrator 17.0.2, SVG Export Plug-In . SVG Version: 6.00 Build 0)  -->
<!DOCTYPE svg PUBLIC "-//W3C//DTD SVG 1.1//EN" "http://www.w3.org/Graphics/SVG/1.1/DTD/svg11.dtd">
<svg version="1.1" id="Layer_1" xmlns="http://www.w3.org/2000/svg" xmlns:xlink="http://www.w3.org/1999/xlink" x="0px" y="0px"
	 width="89px" height="34px" viewBox="-20.638 33 89 34" enable-background="new -20.638 33 89 34" xml:space="preserve">
<g>
	<path fill="#FFFFFF" d="M-18.491,66.963c-0.416,0-0.824-0.201-1.073-0.572c-0.395-0.592-0.236-1.392,0.355-1.787l36.611-24.479
		c0.469-0.315,1.093-0.285,1.533,0.075l21.701,17.799l22.461-22.385h-5.686c-0.712,0-1.288-0.577-1.288-1.289
		c0-0.711,0.576-1.288,1.288-1.288h8.803c0.002,0,0.003,0,0.004,0h0.002c0.001,0,0.001,0,0.002,0h0.001c0.003,0,0.004,0,0.007,0l0,0
		c0.316,0.004,0.606,0.122,0.829,0.314c0.065,0.057,0.124,0.12,0.179,0.19c0.148,0.193,0.242,0.43,0.262,0.688
		c0.002,0.035,0.004,0.07,0.004,0.105v7.72c0,0.711-0.576,1.288-1.289,1.288c-0.712,0-1.288-0.577-1.288-1.288v-4.627L41.631,60.646
		c-0.469,0.466-1.216,0.501-1.726,0.085L18.04,42.798l-35.816,23.947C-17.996,66.893-18.245,66.963-18.491,66.963z"/>
</g>
</svg>
