<?xml version="1.0" encoding="utf-8"?>
<!-- Generator: Adobe Illustrator 17.0.2, SVG Export Plug-In . SVG Version: 6.00 Build 0)  -->
<!DOCTYPE svg PUBLIC "-//W3C//DTD SVG 1.1//EN" "http://www.w3.org/Graphics/SVG/1.1/DTD/svg11.dtd">
<svg version="1.1" id="Layer_1" xmlns="http://www.w3.org/2000/svg" xmlns:xlink="http://www.w3.org/1999/xlink" x="0px" y="0px"
	 width="52px" height="35px" viewBox="0 0 52 35" enable-background="new 0 0 52 35" xml:space="preserve">
<g>
	<polygon fill="#FFFFFF" points="20.398,16.231 21.157,13.402 21.915,16.231 24.689,15.485 22.688,17.5 24.689,19.57 21.943,18.852 
		21.17,21.613 20.398,18.852 17.624,19.543 19.639,17.508 17.624,15.485 	"/>
	<polygon fill="#FFFFFF" points="30.003,16.231 30.761,13.402 31.519,16.231 34.294,15.485 32.292,17.5 34.294,19.57 31.548,18.852 
		30.775,21.613 30.003,18.852 27.228,19.543 29.244,17.508 27.228,15.485 	"/>
	<polygon fill="#FFFFFF" points="39.606,16.231 40.365,13.402 41.124,16.231 43.898,15.485 41.896,17.5 43.898,19.57 41.152,18.852 
		40.38,21.613 39.606,18.852 36.832,19.543 38.849,17.508 36.832,15.485 	"/>
	<polygon fill="#FFFFFF" points="10.793,16.231 11.553,13.402 12.311,16.231 15.085,15.485 13.084,17.5 15.085,19.57 12.339,18.852 
		11.566,21.613 10.793,18.852 8.02,19.543 10.035,17.508 8.02,15.485 	"/>
	<rect x="1.162" y="6.489" fill="#FFFFFF" width="49.677" height="5.465"/>
	<rect x="1.162" y="22.883" fill="#FFFFFF" width="49.677" height="5.463"/>
	<path fill="#FFFFFF" d="M50.839,0.941v33.117H1.162V0.941H50.839 M50.839,0H1.162C0.642,0,0.22,0.421,0.22,0.941v33.117
		C0.22,34.58,0.642,35,1.162,35h49.677c0.521,0,0.941-0.42,0.941-0.941V0.941C51.78,0.421,51.359,0,50.839,0L50.839,0z"/>
</g>
</svg>
