<?xml version="1.0" encoding="utf-8"?>
<!-- Generator: Adobe Illustrator 17.0.2, SVG Export Plug-In . SVG Version: 6.00 Build 0)  -->
<!DOCTYPE svg PUBLIC "-//W3C//DTD SVG 1.1//EN" "http://www.w3.org/Graphics/SVG/1.1/DTD/svg11.dtd">
<svg version="1.1" id="Layer_1" xmlns="http://www.w3.org/2000/svg" xmlns:xlink="http://www.w3.org/1999/xlink" x="0px" y="0px"
	 width="48px" height="66px" viewBox="-0.138 17 48 66" enable-background="new -0.138 17 48 66" xml:space="preserve">
<g>
	<path fill="#FFFFFF" d="M44.969,25.106h-7.473c-0.408-1.58-1.833-2.753-3.541-2.753h-5.599c0.061-0.297,0.093-0.604,0.093-0.918
		c0-2.53-2.058-4.588-4.588-4.588s-4.588,2.059-4.588,4.588c0,0.315,0.032,0.622,0.093,0.918h-5.6c-1.708,0-3.132,1.172-3.542,2.753
		H2.754C1.233,25.106,0,26.338,0,27.859v52.312c0,1.52,1.232,2.752,2.753,2.752h42.215c1.521,0,2.754-1.232,2.754-2.752V27.859
		C47.721,26.338,46.49,25.106,44.969,25.106z M21.108,21.434c0-1.518,1.236-2.753,2.754-2.753c1.518,0,2.753,1.235,2.753,2.753
		c0,0.324-0.067,0.629-0.17,0.918c-0.38,1.065-1.39,1.835-2.583,1.835c-1.195,0-2.204-0.77-2.584-1.835
		C21.175,22.064,21.108,21.758,21.108,21.434z M44.051,77.416H3.671v-48.64h6.424v0.918v1.836h27.532v-1.836v-0.918h6.424V77.416z"
		/>
</g>
</svg>
