<?xml version="1.0" encoding="utf-8"?>
<!-- Generator: Adobe Illustrator 17.0.2, SVG Export Plug-In . SVG Version: 6.00 Build 0)  -->
<!DOCTYPE svg PUBLIC "-//W3C//DTD SVG 1.1//EN" "http://www.w3.org/Graphics/SVG/1.1/DTD/svg11.dtd">
<svg version="1.1" id="Layer_1" xmlns="http://www.w3.org/2000/svg" xmlns:xlink="http://www.w3.org/1999/xlink" x="0px" y="0px"
	 width="37px" height="63px" viewBox="10.025 18.5 37 63" enable-background="new 10.025 18.5 37 63" xml:space="preserve">
<g id="Captions" display="none">
</g>
<g>
	<path fill="#FFFFFF" d="M45.709,33.966c-0.345-0.523-0.701-1.065-0.834-1.56c-0.141-0.528-0.103-1.195-0.064-1.853
		c0.055-1.007,0.11-2.048-0.404-2.935c-0.523-0.909-1.467-1.382-2.381-1.84c-0.57-0.287-1.161-0.583-1.534-0.957
		c-0.37-0.371-0.665-0.958-0.96-1.542c-0.457-0.909-0.931-1.85-1.836-2.373c-0.524-0.303-1.139-0.438-1.992-0.438
		c-0.308,0-0.622,0.017-0.97,0.036c-0.294,0.017-0.589,0.033-0.878,0.033c-0.393,0-0.693-0.031-0.949-0.1
		c-0.489-0.13-1.028-0.485-1.56-0.834c-0.819-0.541-1.749-1.152-2.822-1.152s-2.003,0.612-2.823,1.152
		c-0.524,0.345-1.064,0.703-1.558,0.833c-0.441,0.118-1.03,0.111-1.858,0.067c-0.316-0.018-0.633-0.035-0.94-0.035
		c-0.856,0-1.47,0.135-1.991,0.437c-0.905,0.523-1.378,1.464-1.843,2.388c-0.286,0.568-0.581,1.157-0.953,1.527
		c-0.375,0.375-0.966,0.671-1.541,0.96c-0.91,0.458-1.852,0.931-2.375,1.836c-0.515,0.891-0.457,1.935-0.401,2.948
		c0.036,0.648,0.073,1.317-0.066,1.841c-0.132,0.494-0.489,1.036-0.834,1.56c-0.541,0.82-1.153,1.75-1.153,2.822
		c0,1.073,0.612,2.003,1.154,2.824c0.345,0.524,0.702,1.066,0.834,1.559c0.14,0.524,0.102,1.193,0.065,1.849
		c-0.056,1.008-0.113,2.049,0.402,2.941c0.523,0.904,1.464,1.377,2.387,1.841c0.569,0.287,1.159,0.582,1.529,0.953
		c0.375,0.375,0.671,0.966,0.963,1.549c0.457,0.907,0.929,1.845,1.831,2.366c0.524,0.304,1.139,0.439,1.993,0.439
		c0.002,0,0.004,0,0.005,0c-0.01,0.099-0.019,0.191-0.029,0.302c-0.072,0.748-0.174,1.816-0.293,3.1
		c-0.238,2.563-0.552,5.981-0.863,9.398c-0.624,6.834-1.242,13.667-1.242,13.667c-0.028,0.321,0.112,0.633,0.372,0.822
		c0.26,0.19,0.6,0.229,0.896,0.104l4.361-1.839l3.986,2.551c0.149,0.097,0.321,0.145,0.493,0.145c0.14,0,0.279-0.032,0.408-0.096
		c0.289-0.144,0.48-0.427,0.506-0.748l0.879-11.104l1.124,3.811c0.091,0.308,0.335,0.546,0.646,0.627
		c0.076,0.02,0.153,0.03,0.231,0.03c0.236,0,0.466-0.091,0.64-0.26l3.394-3.301l4.639,0.931c0.318,0.062,0.64-0.042,0.855-0.278
		c0.218-0.236,0.295-0.568,0.204-0.876l-5.069-17.337c0.065-0.031,0.142-0.052,0.202-0.088c0.904-0.52,1.377-1.458,1.842-2.382
		c0.286-0.57,0.584-1.16,0.958-1.534c0.371-0.372,0.963-0.669,1.538-0.959c0.911-0.457,1.853-0.929,2.376-1.835
		c0.515-0.89,0.459-1.931,0.403-2.95c-0.037-0.647-0.074-1.316,0.065-1.841c0.131-0.489,0.485-1.029,0.836-1.562
		c0.539-0.819,1.151-1.749,1.151-2.82C46.861,35.718,46.252,34.791,45.709,33.966z M28.241,78.847l-3.044-1.948l-0.055-0.036
		c-0.254-0.165-0.575-0.194-0.857-0.076l-3.399,1.435c0.673-7.435,2.006-22.105,2.312-25.184c0.391,0.001,0.691,0.032,0.945,0.101
		c0.485,0.13,1.021,0.481,1.557,0.833c0.229,0.15,0.46,0.299,0.693,0.438c0.07,0.042,0.141,0.079,0.211,0.118l2.772,9.951
		L28.241,78.847z M36.749,68.427c-0.296-0.06-0.602,0.031-0.818,0.241l-2.653,2.579l-1.825-6.188l-2.779-9.944
		c1.012-0.053,1.895-0.627,2.68-1.145c0.522-0.345,1.063-0.7,1.553-0.831c0.261-0.069,0.564-0.102,0.954-0.102
		c0.293,0,0.59,0.018,0.892,0.034l0.085,0.005c0.286,0.015,0.568,0.026,0.848,0.026l4.694,16.052L36.749,68.427z M44.173,38.611
		c-0.404,0.614-0.862,1.31-1.068,2.085c-0.216,0.808-0.167,1.663-0.124,2.425c0.042,0.772,0.082,1.502-0.161,1.92
		c-0.249,0.432-0.911,0.764-1.613,1.118c-0.67,0.336-1.431,0.718-2.009,1.298c-0.583,0.582-0.964,1.339-1.308,2.022
		c-0.351,0.697-0.683,1.355-1.114,1.603c-0.134,0.078-0.32,0.131-0.577,0.161c-0.355,0.045-0.817,0.026-1.266,0.002l-0.084-0.004
		c-0.331-0.019-0.664-0.037-0.99-0.037c-0.553,0-1.005,0.052-1.425,0.163c-0.778,0.208-1.475,0.666-2.095,1.073
		c-0.634,0.419-1.29,0.851-1.815,0.851c-0.239,0-0.53-0.096-0.917-0.303c-0.092-0.05-0.184-0.099-0.271-0.151
		c-0.211-0.126-0.42-0.26-0.648-0.411c-0.609-0.399-1.301-0.853-2.068-1.059c-0.415-0.111-0.868-0.163-1.426-0.163
		c-0.291,0-0.588,0.016-0.885,0.031l-0.111,0.006c-0.035,0.001-0.07,0.003-0.129,0.007c-0.243,0.013-0.485,0.026-0.723,0.026
		c-0.665,0-0.933-0.109-1.075-0.193c-0.43-0.248-0.761-0.906-1.116-1.612c-0.336-0.669-0.715-1.429-1.301-2.014
		c-0.579-0.579-1.336-0.959-2.015-1.301c-0.7-0.352-1.361-0.684-1.61-1.115c-0.242-0.417-0.201-1.148-0.158-1.928
		c0.042-0.754,0.09-1.609-0.126-2.417c-0.208-0.779-0.668-1.478-1.074-2.093c-0.418-0.635-0.852-1.292-0.852-1.815
		c0-0.523,0.433-1.179,0.851-1.814c0.406-0.616,0.866-1.314,1.075-2.095c0.215-0.807,0.167-1.662,0.125-2.42
		c-0.043-0.775-0.083-1.507,0.158-1.925c0.249-0.431,0.911-0.764,1.614-1.117c0.67-0.336,1.428-0.716,2.011-1.299
		c0.58-0.58,0.961-1.335,1.303-2.017c0.352-0.699,0.684-1.36,1.116-1.61c0.141-0.081,0.406-0.191,1.073-0.191
		c0.274,0,0.557,0.016,0.839,0.032c0,0,0.061,0.003,0.062,0.003c0.317,0.017,0.635,0.034,0.945,0.034
		c0.556,0,1.007-0.052,1.424-0.163c0.781-0.208,1.479-0.668,2.095-1.075c0.635-0.417,1.29-0.85,1.815-0.85
		c0.523,0,1.18,0.432,1.825,0.858c0.613,0.403,1.309,0.86,2.083,1.067c0.652,0.175,1.455,0.179,2.433,0.125
		c0.282-0.016,0.563-0.032,0.838-0.032c0.667,0,0.934,0.109,1.075,0.191c0.432,0.25,0.764,0.911,1.123,1.626
		c0.336,0.666,0.716,1.42,1.294,1.999c0.582,0.582,1.339,0.963,2.012,1.301c0.7,0.351,1.362,0.684,1.614,1.119
		c0.241,0.417,0.201,1.146,0.158,1.926c-0.043,0.752-0.092,1.605,0.125,2.417c0.209,0.783,0.67,1.48,1.079,2.102
		c0.416,0.633,0.846,1.287,0.846,1.807C45.03,37.309,44.599,37.964,44.173,38.611z"/>
	<path fill="#FFFFFF" d="M28.524,23.657c-7.24,0-13.13,5.891-13.13,13.13c0,7.239,5.89,13.129,13.13,13.129
		c7.24,0,13.131-5.89,13.131-13.129C41.655,29.548,35.764,23.657,28.524,23.657z M28.524,48.084
		c-6.229,0-11.298-5.068-11.298-11.297c0-6.23,5.068-11.298,11.298-11.298s11.299,5.069,11.299,11.298
		C39.823,43.017,34.753,48.084,28.524,48.084z"/>
</g>
</svg>
