<?xml version="1.0" encoding="utf-8"?>
<!-- Generator: Adobe Illustrator 17.0.2, SVG Export Plug-In . SVG Version: 6.00 Build 0)  -->
<!DOCTYPE svg PUBLIC "-//W3C//DTD SVG 1.1//EN" "http://www.w3.org/Graphics/SVG/1.1/DTD/svg11.dtd">
<svg version="1.1" id="Layer_1" xmlns="http://www.w3.org/2000/svg" xmlns:xlink="http://www.w3.org/1999/xlink" x="0px" y="0px"
	 width="28.267px" height="57.183px" viewBox="0 0 28.267 57.183" enable-background="new 0 0 28.267 57.183" xml:space="preserve">
<g>
	<path fill="#FFFFFF" d="M28.267,38.076c0,3.03-1.128,5.503-3.384,7.417c-2.256,1.914-5.378,3.122-9.365,3.623v8.066h-2.769v-7.93
		c-2.097-0.045-4.381-0.302-6.853-0.768C3.423,48.018,1.458,47.441,0,46.758v-3.521c1.709,0.82,3.754,1.516,6.135,2.085
		c2.381,0.57,4.586,0.854,6.614,0.854V28.813c-3.304-1.002-5.754-2.005-7.349-3.008c-1.595-1.002-2.757-2.188-3.486-3.555
		c-0.73-1.367-1.094-3.03-1.094-4.99c0-2.825,1.077-5.201,3.23-7.126c2.153-1.925,5.053-3.116,8.699-3.572V0h2.769v6.494
		c4.489,0.205,8.488,1.025,11.997,2.461l-1.128,3.076c-3.213-1.413-6.836-2.233-10.869-2.461v16.611
		c4.854,1.504,8.191,3.144,10.015,4.922C27.355,32.881,28.267,35.205,28.267,38.076z M4.546,17.261c0,1.96,0.649,3.566,1.948,4.819
		c1.299,1.253,3.384,2.313,6.255,3.179V9.775c-2.712,0.365-4.757,1.23-6.135,2.598C5.235,13.74,4.546,15.37,4.546,17.261z
		 M24.507,37.939c0-1.937-0.718-3.538-2.153-4.802c-1.436-1.265-3.714-2.353-6.836-3.264v16.099c2.78-0.296,4.973-1.15,6.58-2.563
		C23.704,41.996,24.507,40.173,24.507,37.939z"/>
</g>
</svg>
