<?xml version="1.0" encoding="utf-8"?>
<!-- Generator: Adobe Illustrator 17.0.2, SVG Export Plug-In . SVG Version: 6.00 Build 0)  -->
<!DOCTYPE svg PUBLIC "-//W3C//DTD SVG 1.1//EN" "http://www.w3.org/Graphics/SVG/1.1/DTD/svg11.dtd">
<svg version="1.1" id="Layer_1" xmlns="http://www.w3.org/2000/svg" xmlns:xlink="http://www.w3.org/1999/xlink" x="0px" y="0px"
	 width="25.795px" height="48px" viewBox="0 0 25.795 48" enable-background="new 0 0 25.795 48" xml:space="preserve">
<g>
	<path fill="#FFFFFF" d="M8.803,34.302V32.59c0-2.473,0.381-4.506,1.142-6.102c0.761-1.596,2.176-3.281,4.248-5.057
		c2.874-2.43,4.686-4.258,5.436-5.484c0.75-1.226,1.125-2.705,1.125-4.438c0-2.156-0.692-3.82-2.076-4.993
		c-1.384-1.172-3.376-1.759-5.976-1.759c-1.67,0-3.297,0.195-4.882,0.586c-1.585,0.391-3.402,1.104-5.452,2.14L0.498,3.204
		C4.492,1.112,8.666,0.065,13.02,0.065c4.036,0,7.174,0.994,9.415,2.979c2.24,1.987,3.36,4.787,3.36,8.401
		c0,1.543-0.206,2.901-0.618,4.074c-0.413,1.173-1.02,2.282-1.823,3.329c-0.803,1.045-2.536,2.731-5.199,5.056
		c-2.135,1.817-3.545,3.328-4.232,4.533c-0.687,1.205-1.03,2.81-1.03,4.818v1.046H8.803z M7.25,43.717
		c0-2.873,1.268-4.312,3.804-4.312c1.226,0,2.171,0.37,2.838,1.109c0.665,0.74,0.998,1.808,0.998,3.202
		c0,1.353-0.338,2.404-1.015,3.154s-1.616,1.125-2.821,1.125c-1.099,0-2.008-0.332-2.726-0.997
		C7.609,46.333,7.25,45.238,7.25,43.717z"/>
</g>
</svg>
