<?xml version="1.0" encoding="utf-8"?>
<!-- Generator: Adobe Illustrator 17.0.2, SVG Export Plug-In . SVG Version: 6.00 Build 0)  -->
<!DOCTYPE svg PUBLIC "-//W3C//DTD SVG 1.1//EN" "http://www.w3.org/Graphics/SVG/1.1/DTD/svg11.dtd">
<svg version="1.1" id="Layer_1" xmlns="http://www.w3.org/2000/svg" xmlns:xlink="http://www.w3.org/1999/xlink" x="0px" y="0px"
	 width="333px" height="66px" viewBox="0 0 333 66" enable-background="new 0 0 333 66" xml:space="preserve">
<g>
	<g>
		<path fill="#FFFFFF" d="M2.745,28.685l0.043-1.578c0.317-0.073,0.844-0.182,1.58-0.326c0.736-0.144,1.472-0.31,2.207-0.498
			l0.411-0.258c0.144-0.578,0.217-1.168,0.217-1.774v-0.13l-0.087-4.995l0.022-2.098l-0.087-3.092l0.043-3.677l-0.26-7.244
			c-0.216-0.202-0.917-0.404-2.1-0.606C4.447,2.351,4.029,2.235,3.48,2.062l-0.52-0.13V0.417l2.855,0.108
			c1.73,0.173,4.275,0.26,7.634,0.26c1.687,0,3.446-0.044,5.276-0.13l0.411-0.021l1.06,0.021l0.433-0.021h0.909l3.871-0.13
			c0.173,0,0.4-0.015,0.681-0.044c0.281-0.028,0.544-0.051,0.79-0.064c0.086,0.433,0.144,0.865,0.173,1.299l0.325,4.068
			c0,0.434-0.043,0.766-0.13,0.996c-0.519,0.072-0.902,0.108-1.147,0.108c-0.289,0-0.52-0.065-0.692-0.195
			c-0.087-0.086-0.252-0.411-0.497-0.974c-0.605-1.457-1.12-2.319-1.545-2.587c-0.425-0.267-1.61-0.4-3.555-0.4l-2.981,0.087
			c-1.268,0.015-2.269,0.087-3.004,0.217c-0.158,0.028-0.389,0.101-0.691,0.216c-0.188,0.333-0.282,0.76-0.282,1.28l0.065,2.581
			l-0.065,2.95c0,1.504,0.051,2.429,0.152,2.776c0.129,0.087,0.237,0.138,0.324,0.152l1.533,0.021h2.592
			c0.575,0,1.461-0.072,2.656-0.216c0.821-0.102,1.324-0.217,1.512-0.347c0.346-0.23,0.594-0.522,0.745-0.877
			c0.151-0.353,0.263-1.216,0.335-2.586c0.072,0,0.267-0.008,0.584-0.021c0.202-0.015,0.339-0.022,0.411-0.022
			c0.159,0,0.476,0.022,0.952,0.065l-0.13,3.463c-0.01,0.736-0.033,1.371-0.065,1.905l0.044,0.476
			c0.015,0.145,0.022,1.212,0.022,3.203c0,0.13-0.007,0.347-0.022,0.649C24.22,18.742,24,18.771,23.84,18.771
			c-0.117,0-0.401-0.043-0.854-0.13c-0.13-0.274-0.274-0.671-0.433-1.19c-0.331-1.14-0.691-1.804-1.08-1.991
			c-0.692-0.347-2.866-0.52-6.525-0.52c-0.533,0-1.152,0.051-1.858,0.151c-0.101,0.606-0.151,1.306-0.151,2.1l0.108,6.493
			c0.015,1.198,0.144,1.934,0.39,2.209c0.159,0.173,0.7,0.346,1.623,0.518l0.433,0.043c0.649,0.044,1.219,0.138,1.71,0.281
			l0.584,0.132c0.058,0.38,0.086,0.672,0.086,0.876c0,0.219-0.021,0.496-0.065,0.833l-0.411-0.022l-0.671,0.022l-3.074-0.171
			c-0.346-0.017-1.962-0.024-4.848-0.024c-0.793,0-1.551,0.043-2.273,0.13c-1.14,0.13-1.76,0.194-1.861,0.194
			C3.733,28.706,3.091,28.699,2.745,28.685z"/>
		<path fill="#FFFFFF" d="M33.952,2.343l-0.065-1.709c0.26-0.015,0.528-0.022,0.803-0.022c0.722,0,1.481,0.022,2.276,0.065
			c1.907,0.101,3.027,0.151,3.36,0.151c1.156,0,2.287-0.022,3.392-0.067c1.105-0.046,2.089-0.075,2.948-0.088
			c0.859-0.013,1.441-0.026,1.745-0.039L48.389,0.89l0.043,1.261v0.171c-0.808,0.116-1.645,0.174-2.511,0.174
			c-0.808,0-1.342,0.158-1.602,0.476c-0.173,0.202-0.26,1.061-0.26,2.576c0,0.462,0.007,0.837,0.021,1.125l0.021,0.779L44.06,9.486
			l0.13,1.731l-0.087,3.744l0.282,5.433c0.072,1.573,0.418,2.879,1.039,3.918c0.462,0.765,1.111,1.363,1.948,1.796
			c1.212,0.606,2.402,0.91,3.571,0.91c1.385,0,2.677-0.181,3.875-0.542c0.707-0.201,1.374-0.529,2.002-0.984
			c0.628-0.454,1.064-0.869,1.31-1.244c0.52-0.794,0.88-1.537,1.083-2.229c0.274-0.953,0.411-2.432,0.411-4.438
			c0-3.492-0.188-7.424-0.563-11.796l-0.087-1.147c-0.043-0.852-0.202-1.422-0.476-1.71c-0.462-0.447-0.982-0.671-1.559-0.671
			L54.904,2.3l-0.281-0.064l0.043-1.667h1.71l4.134,0.194c1.385,0,2.706-0.064,3.961-0.194l0.368,0.043
			c0.086,0.477,0.13,0.809,0.13,0.996c0,0.158-0.029,0.354-0.086,0.584c-0.534,0.147-1.097,0.233-1.688,0.26
			c-0.967,0.13-1.501,0.239-1.602,0.325c-0.202,0.174-0.303,0.44-0.303,0.802c0,0.26,0.021,0.635,0.065,1.126
			c0.043,0.361,0.065,0.989,0.065,1.885c0,0.506,0.004,0.903,0.011,1.191c0.006,0.289,0.018,0.586,0.032,0.889
			c0.043,1.04,0.079,2.094,0.108,3.162l0.217,4.397c0,2.946-0.101,4.918-0.303,5.914c-0.202,0.996-0.476,1.783-0.822,2.361
			c-0.534,0.866-1.292,1.664-2.273,2.394c-0.981,0.73-2.208,1.307-3.68,1.732c-1.472,0.426-3.189,0.64-5.151,0.64
			c-2.236,0-4.156-0.3-5.757-0.898c-1.602-0.6-2.811-1.385-3.625-2.359c-0.815-0.974-1.375-2.241-1.678-3.799
			c-0.216-1.068-0.325-2.598-0.325-4.589V7.3c0-2.438-0.115-3.816-0.346-4.134c-0.317-0.447-1.306-0.7-2.965-0.758
			C34.5,2.408,34.197,2.387,33.952,2.343z"/>
		<path fill="#FFFFFF" d="M72.259,26.759c0.447-0.131,1.078-0.255,1.894-0.373c0.815-0.118,1.295-0.178,1.439-0.178
			c0.563-0.014,0.938-0.104,1.125-0.273c0.087-0.347,0.13-0.635,0.13-0.866l-0.043-2.773l0.129-2.816v-1.798l0.022-2.123
			l-0.044-2.254l0.086-4.831l0.022-2.188V5.982c-0.101-1.516-0.198-2.351-0.292-2.502c-0.093-0.151-0.509-0.343-1.244-0.574
			c-0.073-0.028-0.346-0.137-0.823-0.325c-0.361-0.144-0.685-0.245-0.974-0.303c-0.505-0.13-0.858-0.281-1.061-0.454
			c-0.029-0.376-0.043-0.664-0.043-0.866c0-0.115,0.007-0.289,0.021-0.52c0.13-0.072,0.268-0.108,0.412-0.108
			c0.345,0,1.602,0.058,3.766,0.174l3.095-0.022l2.294,0.044c0.996,0,2.272-0.06,3.831-0.18c0.462-0.039,0.729-0.059,0.801-0.059
			c0.216,0,0.369,0.057,0.455,0.171c0.114,0.157,0.173,0.442,0.173,0.855c0,0.328-0.08,0.577-0.239,0.748
			c-0.086,0.102-0.404,0.188-0.952,0.261L83.557,2.95c-0.072,0.029-0.194,0.087-0.368,0.173c-0.059,0.102-0.102,0.188-0.131,0.261
			L83.038,3.99l-0.065,1.365v0.39v0.238c0,0.072-0.015,0.47-0.048,1.191c-0.011,0.188-0.017,0.376-0.017,0.563
			c0,0.231,0.015,0.622,0.043,1.171c0.043,0.866,0.065,1.624,0.065,2.274c0,0.751-0.022,1.61-0.065,2.578
			c-0.015,0.361-0.021,0.831-0.021,1.408l-0.086,10.27c0,0.434,0.071,0.715,0.215,0.845l2.057,0.083l1.277-0.021l1.363,0.021
			c2.323,0,4.148-0.266,5.477-0.797c0.995-0.402,1.645-0.806,1.947-1.208c0.491-0.432,0.892-0.899,1.202-1.401
			c0.311-0.504,0.661-1.337,1.049-2.502h0.693c0.346,0,0.737,0.028,1.17,0.087v0.604c0,1.036-0.131,2.851-0.391,5.44
			c-0.101,1.036-0.202,1.669-0.302,1.899c-0.333,0.058-0.542,0.087-0.628,0.087h-0.802l-1.125,0.021
			c-0.129,0-0.988-0.059-2.575-0.174c-0.289-0.015-1.667-0.065-4.133-0.151c-2.469-0.087-4.885-0.129-7.251-0.129l-4.416,0.129
			c-1.703,0.044-3.298,0.123-4.784,0.238h-0.324c-0.086,0-0.224-0.007-0.411-0.021c-0.029-0.158-0.043-0.296-0.043-0.411
			C72.107,27.473,72.158,27.033,72.259,26.759z"/>
		<path fill="#FFFFFF" d="M104.852,26.759c0.447-0.131,1.079-0.255,1.894-0.373c0.815-0.118,1.295-0.178,1.439-0.178
			c0.562-0.014,0.938-0.104,1.125-0.273c0.087-0.347,0.13-0.635,0.13-0.866l-0.043-2.773l0.13-2.816v-1.798l0.022-2.123
			l-0.044-2.254l0.086-4.831l0.022-2.188V5.982c-0.101-1.516-0.198-2.351-0.292-2.502c-0.093-0.151-0.509-0.343-1.244-0.574
			c-0.073-0.028-0.346-0.137-0.824-0.325c-0.36-0.144-0.685-0.245-0.973-0.303c-0.505-0.13-0.859-0.281-1.06-0.454
			c-0.03-0.376-0.044-0.664-0.044-0.866c0-0.115,0.008-0.289,0.022-0.52c0.13-0.072,0.267-0.108,0.411-0.108
			c0.346,0,1.603,0.058,3.767,0.174l3.095-0.022l2.294,0.044c0.996,0,2.272-0.06,3.831-0.18c0.462-0.039,0.729-0.059,0.802-0.059
			c0.216,0,0.368,0.057,0.455,0.171c0.114,0.157,0.173,0.442,0.173,0.855c0,0.328-0.08,0.577-0.238,0.748
			c-0.087,0.102-0.404,0.188-0.953,0.261L116.15,2.95c-0.072,0.029-0.194,0.087-0.367,0.173c-0.059,0.102-0.102,0.188-0.131,0.261
			l-0.021,0.606l-0.065,1.365v0.39v0.238c0,0.072-0.016,0.47-0.048,1.191c-0.011,0.188-0.016,0.376-0.016,0.563
			c0,0.231,0.014,0.622,0.043,1.171c0.044,0.866,0.065,1.624,0.065,2.274c0,0.751-0.022,1.61-0.065,2.578
			c-0.014,0.361-0.021,0.831-0.021,1.408l-0.086,10.27c0,0.434,0.071,0.715,0.215,0.845l2.057,0.083l1.277-0.021l1.363,0.021
			c2.323,0,4.148-0.266,5.477-0.797c0.995-0.402,1.645-0.806,1.947-1.208c0.49-0.432,0.892-0.899,1.201-1.401
			c0.311-0.504,0.661-1.337,1.05-2.502h0.692c0.347,0,0.737,0.028,1.17,0.087v0.604c0,1.036-0.131,2.851-0.391,5.44
			c-0.101,1.036-0.202,1.669-0.302,1.899c-0.333,0.058-0.542,0.087-0.628,0.087h-0.801l-1.126,0.021
			c-0.129,0-0.988-0.059-2.575-0.174c-0.289-0.015-1.667-0.065-4.134-0.151c-2.468-0.087-4.885-0.129-7.252-0.129l-4.415,0.129
			c-1.703,0.044-3.298,0.123-4.783,0.238h-0.325c-0.087,0-0.224-0.007-0.412-0.021c-0.029-0.158-0.042-0.296-0.042-0.411
			C104.701,27.473,104.751,27.033,104.852,26.759z"/>
		<path fill="#FFFFFF" d="M151.4,28.533l0.044-1.473c0.274-0.086,0.758-0.194,1.451-0.324c1.11-0.216,1.786-0.41,2.023-0.583
			c0.239-0.174,0.53-0.592,0.876-1.257l4.37-11.439l5.126-13.451c0.479,0,0.937,0,1.373,0h0.981l0.193,0.39l3.764,8.917
			c0.85,1.891,1.615,3.727,2.291,5.509c0.678,1.782,1.262,3.236,1.752,4.361c0.289,0.679,0.684,1.695,1.189,3.052
			c0.258,0.736,0.654,1.66,1.189,2.771c0.289,0.606,0.504,0.96,0.648,1.062c0.26,0.216,0.682,0.36,1.266,0.433
			c0.586,0.072,1.217,0.237,1.895,0.497c0.072,0.477,0.107,0.831,0.107,1.062c0,0.101-0.006,0.26-0.02,0.476
			c-1.068,0-2.246-0.051-3.529-0.151c-1.285-0.101-2.439-0.151-3.463-0.151c-1.141,0-1.963,0.015-2.467,0.043l-3.681,0.195
			l-1.06,0.043c0-0.505,0.02-0.988,0.064-1.451l2.402-0.519c0.721-0.187,1.141-0.33,1.256-0.433c0.145-0.144,0.217-0.31,0.217-0.497
			s-0.037-0.382-0.109-0.584l-0.859-2.122l-1.697-4.242l-8.264-0.021c-0.307,0.692-0.943,2.388-1.907,5.087
			c-0.274,0.765-0.411,1.284-0.411,1.559c0,0.375,0.101,0.642,0.303,0.801c0.332,0.273,0.967,0.469,1.905,0.584
			c0.13,0.029,0.642,0.108,1.538,0.238c0.013,0.52,0.021,0.88,0.021,1.082c0,0.158-0.015,0.325-0.044,0.498
			c-0.895,0-3.03-0.123-6.407-0.368l-0.888,0.151c-1.068,0.173-2.085,0.26-3.052,0.26H151.4z M161.581,16.369
			c3.372,0.043,5.361,0.064,5.966,0.064l0.54-0.021c-0.432-1.284-0.995-2.781-1.688-4.491c-0.693-1.71-1.256-3.012-1.689-3.907
			L161.581,16.369z"/>
		<path fill="#FFFFFF" d="M186.871,28.469c0-0.434,0.043-0.945,0.131-1.537l2.734-0.477c0.334-0.071,0.736-0.186,1.203-0.347
			l0.281-5.41c-0.057-1.948-0.086-3.406-0.086-4.373l0.021-0.519c0.045-0.592,0.064-2.078,0.064-4.459l-0.057-0.628l0.057-1.818
			l-0.041-1.883V6.088c0-0.837-0.062-1.818-0.186-2.943c-0.014-0.102-0.068-0.274-0.166-0.52c-0.115-0.044-0.242-0.072-0.383-0.087
			c-0.139-0.015-0.279-0.036-0.426-0.065c-0.568-0.101-1.174-0.173-1.814-0.216l-0.328-0.087c-0.395-0.043-0.693-0.101-0.896-0.173
			c-0.043-0.419-0.066-0.686-0.066-0.801c0-0.174,0.043-0.411,0.131-0.715c0.291-0.058,0.693-0.086,1.215-0.086
			c0.52,0,0.881-0.008,1.084-0.021c1.762,0.187,3.07,0.288,3.924,0.303c0.389,0,0.783,0.011,1.18,0.032
			c0.398,0.021,0.748,0.032,1.053,0.032c0.477,0,1.639-0.072,3.488-0.216c0.305-0.072,0.637-0.108,0.998-0.108
			c0.535,0,0.982,0.028,1.344,0.087c0.014,0.303,0.021,0.519,0.021,0.648c0,0.231-0.029,0.513-0.088,0.845l-3.828,0.605
			c-0.303,0.145-0.455,0.354-0.455,0.628l0.047,0.801l0.018,0.347l-0.016,0.952l-0.027,0.736v0.173
			c0.027,0.159,0.043,0.296,0.043,0.411l-0.043,2.749c0.027,0.26,0.043,0.454,0.043,0.584c0,0.072-0.01,0.304-0.029,0.693
			c-0.01,0.23-0.014,0.469-0.014,0.714c0,0.217,0.014,0.729,0.043,1.537c0.402,0.072,0.74,0.115,1.016,0.13l3.197,0.064h1.557
			l3.891,0.021l3.783-0.107c0.49,0,1.008-0.051,1.557-0.152c0.027-0.49,0.049-1.695,0.064-3.614l0.043-0.974l-0.131-3.68
			l-0.15-1.516c-0.045-0.101-0.145-0.194-0.303-0.281c-0.506-0.288-1.516-0.613-3.031-0.974c-0.273-0.058-0.533-0.13-0.779-0.217
			c0.029-0.505,0.086-0.916,0.174-1.233c0.316-0.015,0.512-0.021,0.584-0.021l2.096,0.021c1.34,0.173,2.701,0.26,4.084,0.26
			c0.318,0,0.57-0.008,0.758-0.021l2.809-0.087c0.26-0.015,0.512-0.029,0.756-0.043c0.52-0.116,1.053-0.174,1.6-0.174
			c0.418,0,0.922,0.021,1.514,0.065c-0.016,0.562-0.051,1.075-0.109,1.536c-1.318,0.274-2.184,0.474-2.592,0.596
			c-0.41,0.123-0.822,0.292-1.238,0.509l-0.131,0.433v0.368l0.021,0.562l-0.027,0.281c-0.039,0.303-0.059,0.534-0.059,0.692v0.542
			c0.029,0.648,0.043,1.01,0.043,1.082v2.749l0.021,2.077l-0.057,2.749c-0.02,0.635,0.008,1.934,0.078,3.896v3.073l0.045,2.554
			c0,0.477-0.016,1.054-0.045,1.732c0.303,0.086,0.582,0.158,0.84,0.216c1.35,0.289,2.369,0.584,3.057,0.888l0.064,1.515
			c-0.576,0.016-0.914,0.022-1.014,0.022c-0.693,0-1.484-0.044-2.379-0.13c-1.182-0.13-3.084-0.194-5.705-0.194
			c-1.182,0-2.709,0.093-4.582,0.28c-0.201,0-0.447-0.043-0.734-0.13c0.014-0.663,0.051-1.132,0.107-1.407l1.666-0.389l1.754-0.281
			c0.174-0.044,0.396-0.109,0.67-0.195c0.16-1.168,0.246-3.109,0.26-5.822l0.023-1.84c-0.088-0.765-0.131-1.681-0.131-2.749
			c-0.533-0.043-1.109-0.072-1.729-0.087l-10.027-0.107l-0.195-0.022l-0.152-0.021c-0.1,0-0.215,0.008-0.346,0.021
			c-0.375,0.015-0.691,0.022-0.951,0.022h-0.605c-0.273,0-0.582,0.05-0.928,0.151l-0.109,1.623v0.281
			c0.029,0.39,0.045,0.643,0.045,0.758v6.71c0,0.375,0.021,0.758,0.064,1.148l0.195,0.13l3.197,0.497
			c0.16,0.059,0.283,0.094,0.369,0.108c0.189,0.043,0.35,0.108,0.48,0.195c0.043,0.332,0.064,0.555,0.064,0.671
			c0,0.188-0.029,0.447-0.088,0.779c-0.52,0.014-0.961,0.021-1.32,0.021c-0.318,0-0.615-0.008-0.889-0.021
			c-0.131,0-0.254-0.007-0.369-0.022l-3.057-0.129c-0.723-0.072-1.734-0.108-3.035-0.108l-0.455,0.021
			c-0.607,0.029-0.961,0.05-1.062,0.064C190.18,28.41,188.779,28.469,186.871,28.469z"/>
		<path fill="#FFFFFF" d="M229.139,0.525c0.824,0.043,1.537,0.108,2.145,0.194c1.139,0.159,2.459,0.238,3.961,0.238
			c0.52,0,1.854-0.043,4.004-0.13c3.217-0.13,6.125-0.194,8.723-0.194l3.918-0.044c0.879,0,2.178,0.108,3.894,0.325
			c0.26,0.288,0.391,0.678,0.391,1.169v4.458l0.043,0.888c0,0.087-0.008,0.217-0.022,0.39l-0.887,0.043
			c-0.115,0-0.361-0.014-0.736-0.043c-0.131-0.289-0.303-0.714-0.52-1.277l-0.865-1.536c-0.332-0.649-0.795-1.313-1.387-1.991
			c-0.359-0.102-0.822-0.159-1.385-0.174c-0.145-0.015-0.584-0.05-1.32-0.108c-1.342-0.115-2.785-0.173-4.328-0.173
			c-1.762,0-3.334,0.029-4.719,0.087c-0.043,0.36-0.064,1.782-0.064,4.264l0.021,3.637v2.727c0.361,0.044,0.672,0.065,0.932,0.065
			c2.59,0,4.432-0.051,5.531-0.151c1.1-0.102,1.779-0.242,2.039-0.423c0.26-0.18,0.492-0.494,0.695-0.941
			c0.129-0.317,0.383-1.378,0.76-3.182l0.279-0.021l1.256,0.021c0.059,1.284,0.088,2.259,0.088,2.922
			c0,1.516-0.012,2.489-0.033,2.923c-0.021,0.433-0.031,0.771-0.031,1.017c0,0.39,0.02,1.015,0.064,1.873
			c0.043,0.858,0.064,1.496,0.064,1.915v0.477h-1.537c-0.059-0.231-0.166-0.707-0.326-1.429c-0.289-1.342-0.549-2.179-0.779-2.511
			c-0.176-0.26-0.463-0.455-0.869-0.585c-0.289-0.101-1.359-0.151-3.209-0.151c-2.184,0-3.826,0.058-4.924,0.173
			c0,0.376,0,0.621,0,0.736c0,1.717,0.027,3.146,0.086,4.286l-0.043,4.675c0,0.548,0.195,0.924,0.584,1.126
			c0.592,0.303,2.402,0.453,5.434,0.453c2.004,0,3.707-0.15,5.107-0.453c0.967-0.217,1.818-0.7,2.553-1.451
			c0.982-0.966,1.797-2.322,2.447-4.068c0.447-0.044,0.814-0.066,1.103-0.066c0.158,0,0.397,0.008,0.715,0.022
			c-0.043,0.361-0.078,0.665-0.107,0.909l-0.127,0.65l-0.789,4.09l-0.385,2.468c-0.938,0.043-1.682,0.065-2.231,0.065
			c-0.809,0-2.967-0.071-6.477-0.216c-2.471-0.101-5.443-0.151-8.924-0.151c-1.734,0-3.863,0.071-6.391,0.216h-0.91l-2.621,0.087
			v-1.494c0.273-0.071,0.822-0.151,1.645-0.237c1.502-0.174,2.541-0.404,3.117-0.692c0.158-0.419,0.238-0.945,0.238-1.581
			c0-0.244-0.008-0.663-0.021-1.255l0.021-0.671l-0.064-8.16l0.021-2.446l-0.109-3.463l0.021-2.445l-0.193-2.685
			c0-0.072-0.016-0.216-0.043-0.433c-0.145-0.158-0.361-0.26-0.65-0.303c-0.158-0.029-0.375-0.072-0.649-0.13
			c-0.822-0.174-1.617-0.274-2.381-0.304c-0.275-0.014-0.592-0.043-0.953-0.086L229.139,0.525z"/>
		<path fill="#FFFFFF" d="M263.529,28.533l0.043-1.473c0.273-0.086,0.758-0.194,1.451-0.324c1.109-0.216,1.785-0.41,2.023-0.583
			c0.238-0.174,0.529-0.592,0.875-1.257l4.371-11.439l5.127-13.451c0.479,0,0.936,0,1.371,0h0.982l0.193,0.39l3.764,8.917
			c0.85,1.891,1.615,3.727,2.291,5.509c0.678,1.782,1.262,3.236,1.752,4.361c0.289,0.679,0.684,1.695,1.189,3.052
			c0.26,0.736,0.654,1.66,1.189,2.771c0.289,0.606,0.504,0.96,0.648,1.062c0.26,0.216,0.682,0.36,1.266,0.433
			c0.586,0.072,1.217,0.237,1.895,0.497c0.072,0.477,0.107,0.831,0.107,1.062c0,0.101-0.006,0.26-0.02,0.476
			c-1.068,0-2.246-0.051-3.529-0.151c-1.285-0.101-2.439-0.151-3.463-0.151c-1.141,0-1.963,0.015-2.467,0.043l-3.682,0.195
			l-1.059,0.043c0-0.505,0.021-0.988,0.064-1.451l2.402-0.519c0.721-0.187,1.141-0.33,1.256-0.433
			c0.145-0.144,0.217-0.31,0.217-0.497s-0.037-0.382-0.109-0.584l-0.859-2.122l-1.697-4.242l-8.264-0.021
			c-0.307,0.692-0.943,2.388-1.906,5.087c-0.275,0.765-0.412,1.284-0.412,1.559c0,0.375,0.102,0.642,0.305,0.801
			c0.332,0.273,0.967,0.469,1.904,0.584c0.129,0.029,0.641,0.108,1.537,0.238c0.014,0.52,0.021,0.88,0.021,1.082
			c0,0.158-0.016,0.325-0.043,0.498c-0.896,0-3.031-0.123-6.408-0.368l-0.887,0.151c-1.068,0.173-2.086,0.26-3.053,0.26H263.529z
			 M273.711,16.369c3.371,0.043,5.361,0.064,5.967,0.064l0.539-0.021c-0.432-1.284-0.994-2.781-1.688-4.491s-1.256-3.012-1.69-3.907
			L273.711,16.369z"/>
		<path fill="#FFFFFF" d="M298.719,26.759c0.217-0.058,0.664-0.145,1.342-0.26c1.342-0.23,2.223-0.54,2.641-0.93
			c0.26-0.245,0.426-0.714,0.498-1.406c0.014-0.173,0.065-2.372,0.15-6.596l-0.02-2.378l0.02-2.877l-0.064-7.374V4.074
			c0-0.375-0.1-0.663-0.303-0.865c-0.1-0.101-0.383-0.151-0.844-0.151c-0.375,0-0.809,0.043-1.299,0.13
			c-0.635,0.028-1.205,0.087-1.709,0.173c-0.088,0.015-0.225,0.036-0.412,0.065l-0.021-1.905c0.852-0.274,2.07-0.541,3.658-0.801
			c2.625-0.433,5.857-0.649,9.697-0.649c3.203,0,5.547,0.181,7.033,0.541c2.252,0.563,4.084,1.398,5.498,2.509
			c1.891,1.485,3.309,3.205,4.254,5.158c0.945,1.954,1.418,4.084,1.418,6.392c0,2.912-0.635,5.41-1.906,7.493
			c-1.269,2.084-3.096,3.753-5.475,5.008c-1.676,0.894-3.947,1.341-6.818,1.341l-4.438-0.175l-1.299-0.059l-1.754,0.039l-0.52-0.039
			l-1.816,0.039l-2.402-0.022c-0.088,0-0.824,0.047-2.209,0.139c-0.463,0.026-1.068,0.045-1.818,0.059
			c-0.461,0-0.809,0.007-1.039,0.019C298.732,28.194,298.719,27.61,298.719,26.759z M309.217,2.677
			c-0.029,0.446-0.043,0.763-0.043,0.951l0.043,3.675v3.199c0.029,1.037,0.043,1.945,0.043,2.724l-0.043,2.054l0.064,3.437
			l-0.064,2.119c0,1.974,0.367,3.315,1.103,4.021c1.068,1.008,2.539,1.512,4.416,1.512c1.428,0,2.48-0.137,3.16-0.409
			c1.414-0.548,2.535-1.275,3.365-2.184c0.83-0.907,1.461-2.192,1.895-3.857c0.432-1.663,0.648-3.381,0.648-5.152
			c0-2.91-0.465-5.286-1.395-7.13c-0.932-1.845-2.205-3.23-3.822-4.159c-1.615-0.93-3.469-1.394-5.562-1.394
			C311.555,2.084,310.285,2.281,309.217,2.677z"/>
	</g>
	<g>
		<path fill="#FFFFFF" d="M101.756,50.101h1.958L98.031,65.75h-1.905l-5.661-15.649h1.958l3.481,9.926
			c0.451,1.291,0.843,2.507,1.175,3.649c0.105-0.529,0.501-1.757,1.185-3.683C99.364,56.84,100.528,53.542,101.756,50.101z"/>
		<path fill="#FFFFFF" d="M112.003,65.75V50.101h8.974l-0.074,1.618h-7.068v5.121h6.719v1.599h-6.719v5.693h7.301l-0.084,1.618
			H112.003z"/>
		<path fill="#FFFFFF" d="M142.96,65.75h-2.074l-8.127-12.317l-0.529-0.729c0.057,1.482,0.085,2.804,0.085,3.968v9.079H130.6V50.101
			h2.043l8.147,12.317l0.54,0.729c-0.049-2.249-0.074-3.552-0.074-3.903v-9.143h1.704V65.75z"/>
		<path fill="#FFFFFF" d="M158.032,65.75h-1.842V51.719h-4.814v-1.618h11.471v1.618h-4.814V65.75z"/>
		<path fill="#FFFFFF" d="M182.946,50.101v10.158c0,1.799-0.491,3.202-1.477,4.212c-0.982,1.008-2.48,1.512-4.491,1.512
			c-2.011,0-3.496-0.504-4.455-1.512c-0.959-1.01-1.438-2.421-1.438-4.233V50.101h1.841v10.168c0,1.418,0.335,2.463,1.005,3.132
			c0.671,0.672,1.708,1.007,3.111,1.007c1.369,0,2.39-0.339,3.064-1.017c0.673-0.677,1.01-1.722,1.01-3.132V50.101H182.946z"/>
		<path fill="#FFFFFF" d="M204.611,65.75h-2.116l-2.158-4.91c-0.586-1.318-0.96-2.112-1.122-2.38
			c-0.515,0.034-1.126,0.052-1.831,0.052l-2.804-0.085v7.323h-1.873V49.919h5.005c0.578,0,1.09,0.016,1.535,0.043
			c0.444,0.028,0.887,0.08,1.328,0.153c0.44,0.074,0.823,0.178,1.148,0.308c0.324,0.131,0.628,0.3,0.91,0.508
			c0.282,0.209,0.51,0.457,0.682,0.745c0.174,0.291,0.309,0.634,0.408,1.032c0.1,0.399,0.148,0.849,0.148,1.35
			c0,0.987-0.26,1.838-0.777,2.55c-0.52,0.714-1.255,1.206-2.207,1.482c0,0.015,0.07,0.142,0.212,0.381
			c0.142,0.24,0.309,0.534,0.502,0.884c0.194,0.35,0.345,0.64,0.45,0.873L204.611,65.75z M194.58,51.561v5.291
			c0.289,0,0.887,0.007,1.793,0.021c0.907,0.013,1.607,0.021,2.101,0.021c1.349,0,2.286-0.224,2.815-0.672
			c0.529-0.447,0.793-1.159,0.793-2.133c0-0.853-0.254-1.487-0.762-1.905c-0.508-0.415-1.358-0.623-2.55-0.623H194.58z"/>
		<path fill="#FFFFFF" d="M213.663,65.75V50.101h8.974l-0.074,1.618h-7.069v5.121h6.72v1.599h-6.72v5.693h7.302l-0.085,1.618
			H213.663z"/>
		<path fill="#FFFFFF" d="M231.964,63.168c1.63,0.804,3.375,1.206,5.238,1.206c2.292,0,3.438-1.043,3.438-3.132
			c0-0.678-0.182-1.226-0.544-1.646c-0.364-0.419-1.025-0.749-1.985-0.988l-3.11-0.783c-2.377-0.601-3.566-1.87-3.566-3.81
			c0-1.489,0.512-2.595,1.534-3.318c1.022-0.722,2.438-1.084,4.243-1.084c0.946,0,1.831,0.103,2.656,0.306
			c0.825,0.206,1.518,0.481,2.074,0.826l-0.529,1.492c-0.472-0.261-1.099-0.494-1.879-0.698c-0.779-0.205-1.566-0.308-2.364-0.308
			c-2.554,0-3.831,0.886-3.831,2.657c0,0.6,0.196,1.081,0.587,1.443c0.393,0.364,0.979,0.641,1.763,0.831l2.974,0.719
			c1.27,0.305,2.232,0.789,2.889,1.456c0.656,0.666,0.984,1.613,0.984,2.841c0,1.595-0.489,2.795-1.465,3.604
			c-0.978,0.808-2.307,1.212-3.985,1.212c-1.255,0-2.372-0.129-3.35-0.387c-0.977-0.258-1.751-0.562-2.322-0.916L231.964,63.168z"/>
	</g>
</g>
</svg>
